<svg width="56" height="56" viewBox="0 0 56 56" fill="none" xmlns="http://www.w3.org/2000/svg">
<rect width="55.7928" height="55.7928" rx="27.8964" fill="#E15B3B"/>
<path d="M27.8964 31.833L27.8964 33.8013" stroke="white" stroke-width="1.9683" stroke-linecap="round" stroke-linejoin="round"/>
<path d="M16.0866 26.5842L16.2872 30.3414C16.5027 35.0833 16.6105 37.4543 18.1321 38.9083C19.6537 40.3623 22.0271 40.3623 26.774 40.3623H29.0188C33.7656 40.3623 36.1391 40.3623 37.6607 38.9083C39.1823 37.4543 39.29 35.0833 39.5056 30.3414L39.7062 26.5842" stroke="white" stroke-width="1.9683" stroke-linecap="round" stroke-linejoin="round"/>
<path d="M15.8861 25.8534C18.1159 30.0936 23.1452 31.833 27.8964 31.833C32.6476 31.833 37.6769 30.0936 39.9067 25.8534C40.9711 23.8293 40.1651 20.0232 37.5437 20.0232H18.2491C15.6276 20.0232 14.8217 23.8293 15.8861 25.8534Z" stroke="white" stroke-width="1.9683"/>
<path d="M33.145 20.0232L33.0292 19.6177C32.4518 17.5968 32.1631 16.5864 31.4758 16.0085C30.7885 15.4305 29.8756 15.4305 28.0497 15.4305H27.7428C25.9169 15.4305 25.004 15.4305 24.3167 16.0085C23.6294 16.5864 23.3407 17.5968 22.7633 19.6177L22.6474 20.0232" stroke="white" stroke-width="1.9683"/>
</svg>
