<svg width="97" height="58" viewBox="0 0 97 58" fill="none" xmlns="http://www.w3.org/2000/svg">
<path fill-rule="evenodd" clip-rule="evenodd" d="M25.1856 35.295L21.7321 30.6877L26.5767 27.5759C30.0256 25.3607 30.2355 20.7001 27.4279 18.3996L20.1543 12.4399C16.9372 9.80388 11.5229 11.4982 10.4848 15.9593L8.47252 24.6059C8.27918 25.4368 8.27505 26.1949 8.39542 26.871L8.73443 28.775L7.77878 30.4564C7.46724 31.0046 7.23062 31.6273 7.09885 32.3283L5.46214 41.0351C4.68828 45.1518 8.52963 48.6831 12.8343 47.2669L21.9873 44.2556C26.1458 42.8875 27.2967 38.1115 25.1856 35.295ZM29.4713 32.0825C29.7787 32.4926 30.0515 32.9188 30.2904 33.3577C33.4183 39.1048 30.7222 47.0204 23.6611 49.3434L14.5081 52.3547C6.45234 55.005 -1.3519 48.2919 0.198239 40.0456L1.83495 31.3388C2.0772 30.05 2.52084 28.868 3.12225 27.8098C2.87393 26.4151 2.89915 24.9245 3.25582 23.3919L5.26807 14.7452C7.171 6.56827 17.1453 3.04996 23.549 8.29691L30.8225 14.2566C36.3185 18.7598 35.7474 26.7837 30.7935 31.0914C30.3826 31.4487 29.9416 31.7805 29.4713 32.0825Z" fill="#CE5A3B"/>
<path d="M43.391 43.3859C42.2333 43.3859 41.1527 43.1801 40.1494 42.7685C39.1717 42.3568 38.3871 41.7394 37.7953 40.9161C37.2036 40.0671 36.9078 39.0252 36.9078 37.7903C36.9078 36.0408 37.4995 34.6387 38.6829 33.5839C39.8921 32.5033 41.7445 31.963 44.24 31.963H50.1058V31.1526C50.1058 30.2779 49.9643 29.5833 49.6813 29.0687C49.424 28.5542 48.9352 28.1812 48.2148 27.9496C47.5202 27.7181 46.4911 27.6023 45.1276 27.6023C42.9665 27.6023 40.9469 27.9239 39.0688 28.5671V25.4412C39.8921 25.1068 40.8955 24.8366 42.0789 24.6308C43.2624 24.425 44.5359 24.3221 45.8994 24.3221C48.575 24.3221 50.6075 24.8624 51.9967 25.9429C53.4117 27.0234 54.1192 28.7857 54.1192 31.2298V43H50.5303L50.2601 41.1476C49.5141 41.868 48.5879 42.4211 47.4816 42.807C46.4011 43.193 45.0375 43.3859 43.391 43.3859ZM44.5101 40.3758C45.7708 40.3758 46.8642 40.17 47.7903 39.7584C48.7422 39.321 49.5141 38.7422 50.1058 38.0218V34.8188H44.3172C43.0823 34.8188 42.1818 35.0632 41.6158 35.552C41.0756 36.0151 40.8054 36.7354 40.8054 37.7131C40.8054 38.665 41.127 39.3467 41.7702 39.7584C42.4134 40.17 43.3267 40.3758 44.5101 40.3758ZM61.1795 49.792C59.7903 49.792 58.6068 49.6119 57.6292 49.2517V46.1258C58.0665 46.2802 58.4653 46.3831 58.8255 46.4346C59.2114 46.486 59.5973 46.5118 59.9832 46.5118C60.7807 46.5118 61.4239 46.3831 61.9127 46.1258C62.4016 45.8686 62.8261 45.4569 63.1862 44.8909C63.5721 44.3507 63.9838 43.6432 64.4211 42.7685L56.2785 24.708H60.6392L66.505 38.2919L72.448 24.708H76.7702L69.3222 41.9581C68.679 43.5017 67.9844 44.8524 67.2383 46.0101C66.5179 47.1935 65.6689 48.1197 64.6913 48.7886C63.7394 49.4575 62.5688 49.792 61.1795 49.792ZM83.3008 43.3859C82.143 43.3859 81.0625 43.1801 80.0591 42.7685C79.0815 42.3568 78.2968 41.7394 77.7051 40.9161C77.1134 40.0671 76.8175 39.0252 76.8175 37.7903C76.8175 36.0408 77.4092 34.6387 78.5927 33.5839C79.8019 32.5033 81.6542 31.963 84.1497 31.963H90.0155V31.1526C90.0155 30.2779 89.874 29.5833 89.591 29.0687C89.3338 28.5542 88.845 28.1812 88.1246 27.9496C87.43 27.7181 86.4009 27.6023 85.0373 27.6023C82.8763 27.6023 80.8567 27.9239 78.9786 28.5671V25.4412C79.8019 25.1068 80.8052 24.8366 81.9887 24.6308C83.1721 24.425 84.4456 24.3221 85.8092 24.3221C88.4848 24.3221 90.5172 24.8624 91.9065 25.9429C93.3215 27.0234 94.029 28.7857 94.029 31.2298V43H90.44L90.1699 41.1476C89.4238 41.868 88.4976 42.4211 87.3914 42.807C86.3108 43.193 84.9473 43.3859 83.3008 43.3859ZM84.4199 40.3758C85.6805 40.3758 86.7739 40.17 87.7001 39.7584C88.652 39.321 89.4238 38.7422 90.0155 38.0218V34.8188H84.2269C82.992 34.8188 82.0916 35.0632 81.5256 35.552C80.9853 36.0151 80.7152 36.7354 80.7152 37.7131C80.7152 38.665 81.0368 39.3467 81.6799 39.7584C82.3231 40.17 83.2364 40.3758 84.4199 40.3758Z" fill="#CE5A3B"/>
</svg>
