<svg width="35" height="48" viewBox="0 0 35 48" fill="none" xmlns="http://www.w3.org/2000/svg">
<path fill-rule="evenodd" clip-rule="evenodd" d="M25.1856 30.295L21.7321 25.6877L26.5767 22.5759C30.0256 20.3607 30.2355 15.7001 27.4279 13.3996L20.1543 7.43989C16.9372 4.80388 11.5229 6.49821 10.4848 10.9593L8.47252 19.6059C8.27918 20.4368 8.27505 21.1949 8.39542 21.871L8.73443 23.775L7.77878 25.4564C7.46724 26.0046 7.23062 26.6273 7.09885 27.3283L5.46214 36.0351C4.68828 40.1518 8.52963 43.6831 12.8343 42.2669L21.9873 39.2556C26.1458 37.8875 27.2967 33.1115 25.1856 30.295ZM29.4713 27.0825C29.7787 27.4926 30.0515 27.9188 30.2904 28.3577C33.4183 34.1048 30.7222 42.0204 23.6611 44.3434L14.5081 47.3547C6.45234 50.005 -1.3519 43.2919 0.198239 35.0456L1.83495 26.3388C2.0772 25.05 2.52084 23.868 3.12225 22.8098C2.87393 21.4151 2.89915 19.9245 3.25582 18.3919L5.26807 9.74524C7.171 1.56827 17.1453 -1.95004 23.549 3.29691L30.8225 9.25661C36.3185 13.7598 35.7474 21.7837 30.7935 26.0914C30.3826 26.4487 29.9416 26.7805 29.4713 27.0825Z" fill="#CE5A3B"/>
</svg>
