<svg width="39" height="40" viewBox="0 0 39 40" fill="none" xmlns="http://www.w3.org/2000/svg">
<path d="M19.4399 24.5767L19.4399 27.0067" stroke="#E15B3B" stroke-width="2.43" stroke-linecap="round" stroke-linejoin="round"/>
<path d="M4.86011 18.0967L5.10777 22.7352C5.37387 28.5894 5.50692 31.5165 7.38544 33.3116C9.26396 35.1067 12.1941 35.1067 18.0544 35.1067H20.8258C26.6861 35.1067 29.6163 35.1067 31.4948 33.3116C33.3733 31.5165 33.5063 28.5894 33.7724 22.7352L34.0201 18.0967" stroke="#E15B3B" stroke-width="2.43" stroke-linecap="round" stroke-linejoin="round"/>
<path d="M4.61249 17.1943C7.36534 22.4292 13.5743 24.5766 19.44 24.5766C25.3057 24.5766 31.5147 22.4292 34.2676 17.1943C35.5817 14.6955 34.5867 9.99658 31.3503 9.99658H7.52981C4.29343 9.99658 3.29841 14.6955 4.61249 17.1943Z" stroke="#E15B3B" stroke-width="2.43"/>
<path d="M25.92 9.99666L25.7769 9.49598C25.0641 7.00111 24.7077 5.75367 23.8592 5.04016C23.0106 4.32666 21.8836 4.32666 19.6294 4.32666H19.2505C16.9963 4.32666 15.8693 4.32666 15.0208 5.04016C14.1722 5.75367 13.8158 7.00111 13.103 9.49598L12.96 9.99666" stroke="#E15B3B" stroke-width="2.43"/>
</svg>
