<svg width="143" height="39" viewBox="0 0 143 39" fill="none" xmlns="http://www.w3.org/2000/svg">
<path d="M77.539 18.0945C76.6272 16.9578 75.3451 16.1774 73.9165 15.8895C74.5203 15.7106 75.0894 15.4307 75.5995 15.0615C76.0216 14.7479 76.3947 14.3733 76.7065 13.95C76.9783 13.5667 77.1949 13.1471 77.35 12.7035C77.4974 12.3076 77.6029 11.8974 77.665 11.4795C77.7078 11.1135 77.7304 10.7455 77.7325 10.377C77.7325 8.07602 76.9015 6.42602 75.2395 5.42702C73.5745 4.43702 71.059 3.94202 67.675 3.94202H59.71V29.52H69.16C72.16 29.52 74.5165 28.887 76.2295 27.621C77.9425 26.355 78.7945 24.5175 78.7855 22.1085C78.8374 20.6679 78.3979 19.2524 77.539 18.0945ZM64.435 7.44752H67.4995C69.4675 7.44752 70.9 7.69802 71.797 8.19902C72.694 8.70002 73.144 9.61802 73.147 10.953C73.147 13.353 71.5855 14.544 68.4625 14.526H64.4125L64.435 7.44752ZM68.5345 26.1H64.435V17.82H68.3995C70.2985 17.82 71.698 18.135 72.607 18.7605C73.516 19.386 73.957 20.4165 73.957 21.8475C73.9705 24.687 72.1525 26.1 68.5345 26.1Z" fill="#3C2902"/>
<path d="M94.0494 10.35V22.3695C94.0494 23.814 93.7524 24.849 93.1719 25.4835C92.5914 26.118 91.6509 26.433 90.3729 26.433C89.0949 26.433 88.1229 26.1135 87.5244 25.4745C86.9259 24.8355 86.6244 23.8005 86.6244 22.3695V10.35H82.0389V22.545C82.0389 24.945 82.7979 26.7705 84.3159 28.0215C85.8339 29.2725 87.8349 29.8935 90.3189 29.8845C92.8029 29.8845 94.8069 29.259 96.3309 28.008C97.8549 26.757 98.6154 24.936 98.6124 22.545V10.35H94.0494Z" fill="#3C2902"/>
<path d="M118.898 12.6001C117.512 10.8001 115.598 9.90009 113.156 9.90009C112.004 9.87628 110.863 10.1339 109.833 10.6507C108.802 11.1674 107.914 11.9277 107.243 12.8656C107.315 11.3986 107.347 10.0936 107.347 8.93709V3.00159L102.784 3.30309V29.4976H106.739L107.189 27.0586C107.787 27.8929 108.582 28.5669 109.502 29.0206C110.593 29.6013 111.813 29.8984 113.048 29.8846C114.166 29.9214 115.276 29.6858 116.283 29.1982C117.289 28.7106 118.162 27.9856 118.826 27.0856C120.266 25.2226 120.985 22.7671 120.982 19.7191C120.982 16.7911 120.287 14.4181 118.898 12.6001ZM115.199 24.6916C114.846 25.2319 114.362 25.6735 113.791 25.975C113.22 26.2765 112.582 26.4279 111.937 26.4151C111.267 26.4514 110.599 26.3178 109.995 26.0267C109.391 25.7356 108.87 25.2965 108.481 24.7501C107.707 23.6461 107.318 21.9211 107.315 19.5751C107.348 15.4021 108.911 13.3141 112.004 13.3111C112.637 13.2939 113.265 13.4346 113.829 13.7206C114.394 14.0066 114.879 14.4288 115.24 14.9491C116.036 16.0471 116.428 17.6491 116.428 19.7821C116.428 21.9151 116.027 23.5351 115.199 24.6916Z" fill="#3C2902"/>
<path d="M139.85 12.6C138.23 10.8 135.991 9.90002 133.132 9.90002C130.165 9.90002 127.87 10.791 126.247 12.573C124.624 14.355 123.809 16.7925 123.803 19.8855C123.803 22.8855 124.618 25.3035 126.247 27.1395C127.876 28.9755 130.106 29.8935 132.938 29.8935C135.893 29.8935 138.188 28.9935 139.823 27.1935C141.458 25.3935 142.277 22.9605 142.28 19.8945C142.28 16.8585 141.47 14.427 139.85 12.6ZM136.547 24.705C136.161 25.2626 135.638 25.7112 135.028 26.0076C134.418 26.3039 133.741 26.4381 133.064 26.397C132.382 26.4386 131.699 26.305 131.083 26.0089C130.466 25.7127 129.935 25.2639 129.541 24.705C128.749 23.574 128.354 21.9645 128.357 19.8765C128.357 17.748 128.749 16.128 129.532 15.003C129.925 14.45 130.452 14.0059 131.063 13.7123C131.675 13.4187 132.351 13.2853 133.028 13.3245C134.6 13.3245 135.773 13.881 136.547 14.994C137.321 16.107 137.705 17.7345 137.699 19.8765C137.699 21.9825 137.326 23.5935 136.547 24.723V24.705Z" fill="#3C2902"/>
<path d="M41.5976 2.8305C41.4491 2.934 41.3141 3.0465 41.1476 3.1455C39.7784 4.08112 38.3137 4.86854 36.7781 5.4945C35.9771 5.8455 35.1536 6.1695 34.3391 6.498C31.9496 7.452 29.5646 8.5095 27.4721 10.143C26.5571 10.8498 25.7104 11.6407 24.9431 12.5055C24.1169 13.4244 23.3787 14.4188 22.7381 15.4755C22.6526 15.6195 22.5536 15.7545 22.4501 15.8985C22.3451 15.7629 22.2474 15.6217 22.1576 15.4755C21.5171 14.4199 20.7805 13.4257 19.9571 12.5055C19.1882 11.6407 18.34 10.8497 17.4236 10.143C15.3356 8.5095 12.9596 7.443 10.5386 6.498C9.7196 6.1695 8.8961 5.85 8.0996 5.4945C6.56303 4.86936 5.09688 4.0835 3.7256 3.15C3.5861 3.051 3.4466 2.9385 3.2981 2.835C5.17991 2.69624 7.07149 2.88814 8.8871 3.402C9.08862 3.46781 9.30199 3.4893 9.5126 3.465C11.9021 1.4085 16.7891 0 22.4501 0C28.1111 0 32.9936 1.4085 35.3831 3.465C35.5907 3.48745 35.8008 3.46599 35.9996 3.402C37.8177 2.88502 39.7125 2.69158 41.5976 2.8305Z" fill="#3C2902"/>
<path d="M12.3925 9.45005C11.7714 9.45011 11.1642 9.63378 10.6472 9.97796C10.1302 10.3221 9.72649 10.8115 9.48681 11.3844C9.24713 11.9574 9.18218 12.5884 9.30012 13.1982C9.41806 13.808 9.71363 14.3693 10.1497 14.8116C10.5857 15.2539 11.1428 15.5574 11.7508 15.6839C12.3589 15.8105 12.9908 15.7545 13.5671 15.523C14.1434 15.2915 14.6384 14.8947 14.9899 14.3827C15.3413 13.8706 15.5336 13.2661 15.5425 12.6451C15.5534 12.2263 15.4797 11.8097 15.3259 11.42C15.172 11.0304 14.9411 10.6759 14.647 10.3776C14.3529 10.0793 14.0017 9.84338 13.6143 9.68401C13.2269 9.52464 12.8113 9.44506 12.3925 9.45005ZM12.3385 14.0715C12.0494 14.0679 11.7679 13.9784 11.5298 13.8144C11.2917 13.6504 11.1078 13.4193 11.0013 13.1505C10.8949 12.8817 10.8708 12.5873 10.932 12.3048C10.9933 12.0222 11.1371 11.7643 11.3453 11.5637C11.5535 11.3631 11.8167 11.2289 12.1013 11.1782C12.3859 11.1276 12.6792 11.1626 12.9439 11.279C13.2085 11.3954 13.4326 11.5879 13.5876 11.8319C13.7426 12.0759 13.8216 12.3605 13.8145 12.6496C13.8028 13.0327 13.6419 13.3962 13.3663 13.6627C13.0906 13.9291 12.7218 14.0774 12.3385 14.0761V14.0715Z" fill="#3C2902"/>
<path d="M32.6244 9.45007C32.0027 9.4501 31.395 9.63408 30.8777 9.97883C30.3604 10.3236 29.9566 10.8137 29.7173 11.3875C29.478 11.9612 29.4138 12.5929 29.5328 13.2031C29.6518 13.8133 29.9487 14.3746 30.3861 14.8163C30.8235 15.2581 31.3818 15.5606 31.9908 15.6857C32.5997 15.8107 33.2321 15.7528 33.8082 15.5192C34.3843 15.2856 34.8784 14.8868 35.2283 14.373C35.5782 13.8591 35.7682 13.2532 35.7744 12.6316C35.7822 12.2143 35.7064 11.7996 35.5512 11.4122C35.3961 11.0247 35.1649 10.6723 34.8712 10.3757C34.5776 10.0791 34.2274 9.84436 33.8415 9.68538C33.4556 9.5264 33.0418 9.44639 32.6244 9.45007ZM32.6244 14.0716C32.3361 14.0742 32.0534 13.9913 31.8122 13.8333C31.5709 13.6754 31.382 13.4494 31.2692 13.184C31.1564 12.9186 31.1248 12.6258 31.1784 12.3424C31.2321 12.0591 31.3685 11.798 31.5705 11.5923C31.7725 11.3865 32.031 11.2452 32.3133 11.1863C32.5956 11.1275 32.889 11.1536 33.1564 11.2615C33.4238 11.3694 33.6533 11.5541 33.8157 11.7924C33.9781 12.0306 34.0662 12.3117 34.0689 12.6001C34.0702 12.9842 33.9213 13.3536 33.6539 13.6294C33.3865 13.9052 33.0219 14.0655 32.6379 14.0761L32.6244 14.0716Z" fill="#3C2902"/>
<path d="M22.4635 30.6991C20.533 28.4221 20.0695 25.5196 21.4645 23.4451C21.7615 24.0571 22.054 24.6646 22.4095 25.4071C22.7515 24.7006 23.026 24.1291 23.3095 23.5621C24.808 25.2631 24.4795 28.2736 22.4635 30.6991Z" fill="#3C2902"/>
<path d="M44.9005 15.21C44.9028 18.4875 43.8416 21.6771 41.8765 24.3C41.8414 24.3525 41.8023 24.4022 41.7595 24.4485C39.7815 26.811 37.2248 28.6203 34.339 29.7L34.2535 29.7315C30.1495 31.3785 26.5495 33.75 23.7325 37.1025C23.584 37.2735 23.44 37.4535 23.2825 37.629C23.125 37.8045 23.0125 37.971 22.882 38.1465L22.6525 38.4615C22.5805 38.565 22.5265 38.6685 22.432 38.826C22.3375 38.6685 22.2835 38.565 22.2115 38.4615L21.982 38.1465L21.5995 37.629C21.4555 37.4535 21.316 37.2735 21.1495 37.1025C18.346 33.75 14.764 31.3785 10.6465 29.7405L10.561 29.7C7.68042 28.624 5.1272 26.8211 3.14948 24.4665C3.10277 24.4148 3.06061 24.3591 3.02348 24.3C1.05361 21.6608 -0.00726485 18.4539 3.74464e-05 15.1605C0.00733974 11.8672 1.08243 8.66505 3.06398 6.03455C4.53548 6.79955 5.98898 7.55555 7.41098 8.28455C7.00587 9.06939 6.64823 9.87785 6.33998 10.7055C5.9748 11.7848 5.87902 12.9369 6.06098 14.0616C6.24294 15.1864 6.69713 16.2495 7.38398 17.1585C9.70148 20.3085 13.981 20.2185 16.1635 16.9335C16.6122 16.1519 17.009 15.3417 17.3515 14.508C17.4529 14.5937 17.5477 14.687 17.635 14.787C18.7105 15.9885 19.7725 17.208 20.857 18.4095C21.1315 18.7155 21.073 18.8865 20.803 19.1385C19.4071 20.3452 18.352 21.8968 17.743 23.6385C17.3581 24.6903 17.1993 25.8115 17.2768 26.9288C17.3544 28.0461 17.6665 29.1345 18.193 30.123C19.462 32.4765 20.9335 34.7175 22.3555 37.0665C22.3555 37.1025 22.396 37.134 22.4185 37.1745L22.4815 37.0665C23.9395 34.74 25.411 32.499 26.68 30.15C27.2101 29.1631 27.5262 28.0755 27.6076 26.9582C27.689 25.8408 27.5339 24.7189 27.1525 23.6655C26.5418 21.9247 25.4869 20.3735 24.0925 19.1655C23.8225 18.9135 23.764 18.7425 24.034 18.4365C25.123 17.235 26.1805 16.0155 27.2605 14.814C27.3478 14.714 27.4425 14.6207 27.544 14.535C27.8846 15.3695 28.2815 16.1799 28.732 16.9605C30.91 20.2455 35.194 20.358 37.5115 17.1855C38.1983 16.2765 38.6525 15.2134 38.8345 14.0886C39.0164 12.9639 38.9207 11.8118 38.5555 10.7325C38.2472 9.90484 37.8896 9.09639 37.4845 8.31155C38.9065 7.56455 40.36 6.80855 41.8315 6.06155C43.8251 8.69462 44.9028 11.9074 44.9005 15.21Z" fill="#FEB21E"/>
</svg>
