<svg id="Layer_1" data-name="Layer 1" xmlns="http://www.w3.org/2000/svg" viewBox="0 0 99.78 86.28"><defs><style>.cls-1{fill:#fff;}.cls-2{fill:#efb207;}</style></defs><path class="cls-1" d="M92.44,6.29c-.33.23-.63.48-1,.7a52,52,0,0,1-9.71,5.22c-1.78.78-3.61,1.5-5.42,2.23C71,16.56,65.7,18.91,61.05,22.54a41.12,41.12,0,0,0-5.62,5.25,43.94,43.94,0,0,0-4.9,6.6c-.19.32-.41.62-.64.94a10.59,10.59,0,0,1-.65-.94,44.57,44.57,0,0,0-4.89-6.6,41.2,41.2,0,0,0-5.63-5.25c-4.64-3.63-9.92-6-15.3-8.1C21.6,13.71,19.77,13,18,12.21A52.29,52.29,0,0,1,8.28,7c-.31-.22-.62-.47-.95-.7A35.91,35.91,0,0,1,19.75,7.56a3.27,3.27,0,0,0,1.39.14C26.45,3.13,37.31,0,49.89,0S73.32,3.13,78.63,7.7A3.31,3.31,0,0,0,80,7.56,35.85,35.85,0,0,1,92.44,6.29Z"/><path class="cls-1" d="M27.54,21a7,7,0,1,0,7,7.1A6.92,6.92,0,0,0,27.54,21Zm-.12,10.27a3.24,3.24,0,1,1,3.28-3.16A3.27,3.27,0,0,1,27.42,31.28Z"/><path class="cls-1" d="M72.5,21a7,7,0,1,0,7,7.07A6.94,6.94,0,0,0,72.5,21Zm0,10.27A3.24,3.24,0,1,1,75.71,28,3.27,3.27,0,0,1,72.53,31.28Z"/><path class="cls-1" d="M49.92,68.22C45.63,63.16,44.6,56.71,47.7,52.1c.66,1.36,1.31,2.71,2.1,4.36.76-1.57,1.37-2.84,2-4.1C55.13,56.14,54.4,62.83,49.92,68.22Z"/><path class="cls-2" d="M99.78,33.8A33.65,33.65,0,0,1,93.06,54a2.69,2.69,0,0,1-.26.33A39.61,39.61,0,0,1,76.31,66l-.19.07C67,69.73,59,75,52.74,82.45c-.33.38-.65.78-1,1.17s-.6.76-.89,1.15l-.51.7c-.16.23-.28.46-.49.81-.21-.35-.33-.58-.49-.81l-.51-.7L48,83.62c-.32-.39-.63-.79-1-1.17C40.77,75,32.81,69.73,23.66,66.09L23.47,66A39.61,39.61,0,0,1,7,54.37,2.69,2.69,0,0,1,6.72,54a33.83,33.83,0,0,1,.09-40.59c3.27,1.7,6.5,3.38,9.66,5a49.05,49.05,0,0,0-2.38,5.38,15.53,15.53,0,0,0,2.32,14.34c5.15,7,14.66,6.8,19.51-.5a45.72,45.72,0,0,0,2.64-5.39,5.8,5.8,0,0,1,.63.62c2.39,2.67,4.75,5.38,7.16,8.05.61.68.48,1.06-.12,1.62a23.45,23.45,0,0,0-6.8,10,17.71,17.71,0,0,0,1,14.41h0c2.82,5.23,6.09,10.21,9.25,15.43,0,.08.09.15.14.24v0l.14-.24C53.2,77.2,56.47,72.22,59.29,67h0a17.71,17.71,0,0,0,1.05-14.41,23.54,23.54,0,0,0-6.8-10c-.6-.56-.73-.94-.13-1.62,2.42-2.67,4.77-5.38,7.17-8.05a5.8,5.8,0,0,1,.63-.62,44.22,44.22,0,0,0,2.64,5.39c4.84,7.3,14.36,7.55,19.51.5a15.53,15.53,0,0,0,2.32-14.34,49.05,49.05,0,0,0-2.38-5.38c3.16-1.66,6.39-3.34,9.66-5A33.64,33.64,0,0,1,99.78,33.8Z"/></svg>