<svg width="32" height="32" viewBox="0 0 32 32" fill="none" xmlns="http://www.w3.org/2000/svg">
<path d="M15.589 3.22412H7.79457C4.57026 3.22412 3.89734 3.89704 3.89734 7.12135V29.2057H19.4863V7.12136C19.4863 3.89704 18.8134 3.22412 15.589 3.22412Z" stroke="white" stroke-width="1.94862" stroke-linejoin="round"/>
<path d="M23.3836 11.019H19.4863V29.2061H27.2808V14.9163C27.2808 11.692 26.6079 11.019 23.3836 11.019Z" stroke="white" stroke-width="1.94862" stroke-linejoin="round"/>
<path d="M10.3927 8.4209L12.9909 8.4209M10.3927 12.3181L12.9909 12.3181M10.3927 16.2154L12.9909 16.2154" stroke="white" stroke-width="1.94862" stroke-linecap="round" stroke-linejoin="round"/>
<path d="M14.9395 29.2066V24.0103C14.9395 22.7855 14.9395 22.1731 14.559 21.7926C14.1785 21.4121 13.5661 21.4121 12.3413 21.4121H11.0422C9.81747 21.4121 9.20507 21.4121 8.82458 21.7926C8.44409 22.1731 8.44409 22.7855 8.44409 24.0103V29.2066" stroke="white" stroke-width="1.94862" stroke-linejoin="round"/>
</svg>
