<svg width="56" height="56" viewBox="0 0 56 56" fill="none" xmlns="http://www.w3.org/2000/svg">
<rect width="55.7928" height="55.7928" rx="27.8964" fill="#E15B3B"/>
<path d="M29.8647 29.2086V27.2403C29.8647 25.3973 29.8647 24.4759 29.4224 23.8139C29.2309 23.5274 28.9849 23.2813 28.6983 23.0899C28.1201 22.7035 27.3438 22.6547 25.9281 22.6485C25.7232 22.6476 25.505 22.6476 25.272 22.6476C23.4291 22.6476 22.5076 22.6476 21.8457 23.0899C21.5591 23.2813 21.3131 23.5274 21.1216 23.8139C20.6793 24.4759 20.6793 25.3973 20.6793 27.2403V35.1135C20.6793 36.9564 20.6793 37.8779 21.1216 38.5398C21.3131 38.8264 21.5591 39.0724 21.8457 39.2639C22.5076 39.7062 23.4291 39.7062 25.272 39.7062C27.1149 39.7062 28.0364 39.7062 28.6983 39.2639C28.9849 39.0724 29.2309 38.8264 29.4224 38.5398C29.6682 38.1719 29.7774 37.7238 29.8259 37.0818" stroke="white" stroke-width="1.9683" stroke-linecap="round"/>
<path d="M25.9281 26.5843V28.5526C25.9281 30.3955 25.9281 31.317 26.3704 31.9789C26.5619 32.2655 26.8079 32.5115 27.0945 32.703C27.6727 33.0893 28.449 33.1382 29.8647 33.1444C30.0696 33.1453 30.2878 33.1453 30.5208 33.1453C32.3637 33.1453 33.2852 33.1453 33.9471 32.703C34.2337 32.5115 34.4797 32.2655 34.6712 31.9789C35.1135 31.317 35.1135 30.3955 35.1135 28.5526V20.6794C35.1135 18.8364 35.1135 17.915 34.6712 17.253C34.4797 16.9665 34.2337 16.7204 33.9471 16.529C33.2852 16.0867 32.3637 16.0867 30.5208 16.0867C28.6779 16.0867 27.7564 16.0867 27.0945 16.529C26.8079 16.7204 26.5619 16.9665 26.3704 17.253C26.1245 17.621 26.0153 18.0691 25.9668 18.7111" stroke="white" stroke-width="1.9683" stroke-linecap="round"/>
</svg>
