<svg width="56" height="56" viewBox="0 0 56 56" fill="none" xmlns="http://www.w3.org/2000/svg">
<rect width="55.7928" height="55.7928" rx="27.8964" fill="#E15B3B"/>
<path d="M18.711 22.6476C18.7246 19.1776 18.8527 17.3214 20.0545 16.1196C21.3997 14.7744 23.5647 14.7744 27.8948 14.7744C32.2248 14.7744 34.3898 14.7744 35.735 16.1196C36.9368 17.3214 37.0649 19.1776 37.0785 22.6476M18.711 33.1452C18.7246 36.6152 18.8527 38.4714 20.0545 39.6732C21.3997 41.0184 23.5647 41.0184 27.8948 41.0184C32.2248 41.0184 34.3898 41.0184 35.735 39.6732C36.9368 38.4714 37.0649 36.6152 37.0785 33.1452" stroke="white" stroke-width="1.9683" stroke-linecap="round"/>
<path d="M26.5842 37.0818H29.2086" stroke="white" stroke-width="1.9683" stroke-linecap="round" stroke-linejoin="round"/>
<path d="M33.1452 25.272L34.7547 26.6592C35.4313 27.2424 35.7696 27.534 35.7696 27.8964C35.7696 28.2587 35.4313 28.5503 34.7547 29.1335L33.1452 30.5208" stroke="white" stroke-width="1.9683" stroke-linecap="round" stroke-linejoin="round"/>
<path d="M22.6476 25.272L21.0381 26.6592C20.3615 27.2424 20.0232 27.534 20.0232 27.8964C20.0232 28.2587 20.3615 28.5503 21.0381 29.1335L22.6476 30.5208" stroke="white" stroke-width="1.9683" stroke-linecap="round" stroke-linejoin="round"/>
<path d="M29.2086 23.9598L26.5842 31.833" stroke="white" stroke-width="1.9683" stroke-linecap="round" stroke-linejoin="round"/>
</svg>
