<svg width="36" height="37" viewBox="0 0 36 37" fill="none" xmlns="http://www.w3.org/2000/svg">
<path d="M21 3.71655H15C10.0812 3.71655 7.62173 3.71655 5.87836 4.93728C5.23336 5.38891 4.67236 5.94991 4.22072 6.59491C3 8.33829 3 10.7977 3 15.7166C3 20.6354 3 23.0948 4.22072 24.8382C4.67236 25.4832 5.23336 26.0442 5.87836 26.4958C7.62173 27.7166 10.0812 27.7166 15 27.7166H21C25.9188 27.7166 28.3783 27.7166 30.1216 26.4958C30.7666 26.0442 31.3276 25.4832 31.7793 24.8382C33 23.0948 33 20.6354 33 15.7166C33 10.7977 33 8.33829 31.7793 6.59491C31.3276 5.94991 30.7666 5.38891 30.1216 4.93728C28.3783 3.71655 25.9188 3.71655 21 3.71655Z" stroke="#E15B3B" stroke-width="2.25" stroke-linecap="round"/>
<path d="M24 12.7166L25.8398 14.3023C26.6133 14.969 27 15.3023 27 15.7166C27 16.1308 26.6133 16.4641 25.8398 17.1308L24 18.7166" stroke="#E15B3B" stroke-width="2.25" stroke-linecap="round" stroke-linejoin="round"/>
<path d="M12 12.7166L10.1602 14.3023C9.38673 14.969 9 15.3023 9 15.7166C9 16.1308 9.38673 16.4641 10.1602 17.1308L12 18.7166" stroke="#E15B3B" stroke-width="2.25" stroke-linecap="round" stroke-linejoin="round"/>
<path d="M19.5 11.2166L16.5 20.2166" stroke="#E15B3B" stroke-width="2.25" stroke-linecap="round" stroke-linejoin="round"/>
<path d="M21.9836 33.7166L21.3553 33.0883C19.939 31.6719 19.5878 29.5081 20.4836 27.7166" stroke="#E15B3B" stroke-width="2.25" stroke-linecap="round"/>
<path d="M13.5008 33.7166L14.1291 33.0883C15.5454 31.6719 15.8966 29.5081 15.0008 27.7166" stroke="#E15B3B" stroke-width="2.25" stroke-linecap="round"/>
<path d="M10.5 33.7166H25.5" stroke="#E15B3B" stroke-width="2.25" stroke-linecap="round"/>
</svg>
