<svg width="55" height="56" viewBox="0 0 55 56" fill="none" xmlns="http://www.w3.org/2000/svg">
<rect width="54.155" height="55.5984" rx="27.0775" fill="#E15B3B"/>
<path d="M31.6609 42.2334V40.8069L31.661 40.7767C31.6683 39.9899 32.3133 39.3539 33.1111 39.3466L33.2194 39.3464C35.2858 39.33 37.0611 37.8948 37.4827 35.8997L37.498 35.8247L38.2474 32.1294L39.6061 31.4595C40.3332 31.101 40.6967 30.9217 40.7754 30.5931C40.8541 30.2644 40.6102 29.9437 40.1225 29.3024L37.3692 25.6822C37.0952 25.3219 36.9582 25.1418 36.8848 24.9512C36.8115 24.7606 36.7889 24.4905 36.7437 23.9504C36.248 18.023 31.2128 13.365 25.0744 13.365C18.6075 13.365 13.365 18.5349 13.365 24.9123C13.365 28.8813 15.3954 32.3825 18.4878 34.461M18.4878 34.461V42.2334M18.4878 34.461C19.3826 35.0624 20.3662 35.5446 21.4152 35.8847" stroke="white" stroke-width="2.16513" stroke-linecap="round" stroke-linejoin="round"/>
<path d="M29.9643 23.469L31.2921 24.6135C31.8503 25.0946 32.1294 25.3352 32.1294 25.6341C32.1294 25.9331 31.8503 26.1736 31.2921 26.6548L29.9643 27.7993" stroke="white" stroke-width="2.16513" stroke-linecap="round" stroke-linejoin="round"/>
<path d="M19.8603 23.469L18.5325 24.6135C17.9743 25.0946 17.6952 25.3352 17.6952 25.6341C17.6952 25.9331 17.9743 26.1736 18.5325 26.6548L19.8603 27.7993" stroke="white" stroke-width="2.16513" stroke-linecap="round" stroke-linejoin="round"/>
<path d="M26.3557 22.0255L23.4689 29.2426" stroke="white" stroke-width="2.16513" stroke-linecap="round" stroke-linejoin="round"/>
</svg>
