<svg width="39" height="40" viewBox="0 0 39 40" fill="none" xmlns="http://www.w3.org/2000/svg">
<path d="M24.5842 35.9164V34.3154L24.5843 34.2814C24.5925 33.3984 25.3164 32.6846 26.2118 32.6764L26.3333 32.6762C28.6526 32.6578 30.645 31.047 31.1181 28.8078L31.1354 28.7236L31.9765 24.5764L33.5014 23.8244C34.3174 23.4221 34.7254 23.2209 34.8137 22.852C34.902 22.4831 34.6283 22.1232 34.0809 21.4035L30.9908 17.3404C30.6833 16.936 30.5295 16.7338 30.4472 16.5199C30.3648 16.306 30.3395 16.0029 30.2888 15.3967C29.7324 8.74423 24.0813 3.51636 17.1919 3.51636C9.93385 3.51636 4.05005 9.31875 4.05005 16.4764C4.05005 20.9308 6.32889 24.8604 9.79961 27.1932M9.79961 27.1932V35.9164M9.79961 27.1932C10.8038 27.8681 11.9077 28.4094 13.0851 28.791" stroke="#E15B3B" stroke-width="2.43" stroke-linecap="round" stroke-linejoin="round"/>
<path d="M22.6801 14.8564L24.1704 16.1409C24.7969 16.6809 25.1101 16.9509 25.1101 17.2864C25.1101 17.622 24.7969 17.892 24.1704 18.432L22.6801 19.7164" stroke="#E15B3B" stroke-width="2.43" stroke-linecap="round" stroke-linejoin="round"/>
<path d="M11.3399 14.8564L9.84967 16.1409C9.22316 16.6809 8.90991 16.9509 8.90991 17.2864C8.90991 17.622 9.22316 17.892 9.84966 18.432L11.3399 19.7164" stroke="#E15B3B" stroke-width="2.43" stroke-linecap="round" stroke-linejoin="round"/>
<path d="M18.6299 13.2363L15.3899 21.3363" stroke="#E15B3B" stroke-width="2.43" stroke-linecap="round" stroke-linejoin="round"/>
</svg>
