<svg width="35" height="33" viewBox="0 0 35 33" fill="none" xmlns="http://www.w3.org/2000/svg">
<path fill-rule="evenodd" clip-rule="evenodd" d="M19.4688 19.9414C20.0957 20.1808 20.4098 20.8831 20.1704 21.5099C19.1354 24.2196 17.5607 25.7135 15.649 26.4606C13.8795 27.1521 11.9193 27.1517 10.2307 27.1514C10.1954 27.1514 10.1603 27.1514 10.1253 27.1514C8.31057 27.1514 6.78879 27.1665 5.48607 27.6756C4.28854 28.1435 3.17166 29.0796 2.35036 31.2299C2.11093 31.8568 1.40867 32.1709 0.781811 31.9314C0.154952 31.692 -0.159125 30.9898 0.0803005 30.3629C1.11525 27.6532 2.68993 26.1593 4.60162 25.4122C6.3712 24.7207 8.33135 24.7211 10.02 24.7214C10.0552 24.7214 10.0903 24.7214 10.1253 24.7214C11.9401 24.7214 13.4619 24.7063 14.7646 24.1972C15.9621 23.7293 17.079 22.7932 17.9003 20.6429C18.1397 20.016 18.842 19.702 19.4688 19.9414Z" fill="#E15B3B"/>
<path fill-rule="evenodd" clip-rule="evenodd" d="M18.9505 0.421388H25.6044C27.4396 0.421349 28.9393 0.421316 30.1233 0.580501C31.3609 0.746892 32.4339 1.10699 33.2904 1.96347C34.1469 2.81995 34.507 3.89294 34.6734 5.13054C34.8325 6.31454 34.8325 7.81422 34.8325 9.64942V13.0634C34.8325 14.8986 34.8325 16.3982 34.6734 17.5822C34.507 18.8198 34.1469 19.8928 33.2904 20.7493C32.4339 21.6058 31.3609 21.9659 30.1233 22.1323C28.9393 22.2915 27.4396 22.2914 25.6044 22.2914H23.0854C22.4143 22.2914 21.8704 21.7474 21.8704 21.0764C21.8704 20.4054 22.4143 19.8614 23.0854 19.8614H25.5175C27.461 19.8614 28.7964 19.8588 29.7995 19.7239C30.7677 19.5938 31.2424 19.3608 31.5721 19.031C31.9018 18.7013 32.1349 18.2266 32.265 17.2584C32.3999 16.2554 32.4025 14.9199 32.4025 12.9764V9.73639C32.4025 7.79285 32.3999 6.45743 32.265 5.45433C32.1349 4.48619 31.9018 4.01148 31.5721 3.68174C31.2424 3.35201 30.7677 3.119 29.7995 2.98883C28.7964 2.85397 27.461 2.85139 25.5175 2.85139H19.0375C17.0939 2.85139 15.7585 2.85397 14.7554 2.98883C13.7873 3.119 13.3125 3.35201 12.9828 3.68174C12.7005 3.96406 12.493 4.34857 12.3569 5.04322C12.2142 5.77179 12.1684 6.74017 12.1566 8.12669C12.151 8.79769 11.6024 9.33703 10.9314 9.33134C10.2604 9.32566 9.72104 8.77709 9.72673 8.10609C9.73841 6.72797 9.78107 5.552 9.97223 4.57611C10.17 3.56629 10.5418 2.68622 11.2645 1.96347C12.121 1.10699 13.194 0.746892 14.4316 0.580501C15.6156 0.421316 17.1153 0.421349 18.9505 0.421388Z" fill="#E15B3B"/>
<path fill-rule="evenodd" clip-rule="evenodd" d="M10.1254 14.1915C8.55962 14.1915 7.29035 15.4607 7.29035 17.0265C7.29035 18.5922 8.55962 19.8615 10.1254 19.8615C11.6911 19.8615 12.9604 18.5922 12.9604 17.0265C12.9604 15.4607 11.6911 14.1915 10.1254 14.1915ZM4.86035 17.0265C4.86035 14.1187 7.21757 11.7615 10.1254 11.7615C13.0331 11.7615 15.3904 14.1187 15.3904 17.0265C15.3904 19.9343 13.0331 22.2915 10.1254 22.2915C7.21757 22.2915 4.86035 19.9343 4.86035 17.0265Z" fill="#E15B3B"/>
<path fill-rule="evenodd" clip-rule="evenodd" d="M16.2003 8.11637C16.2003 7.44534 16.7443 6.90137 17.4153 6.90137H27.1353C27.8063 6.90137 28.3503 7.44534 28.3503 8.11637C28.3503 8.78739 27.8063 9.33137 27.1353 9.33137H17.4153C16.7443 9.33137 16.2003 8.78739 16.2003 8.11637ZM21.0603 14.5964C21.0603 13.9253 21.6043 13.3814 22.2753 13.3814H27.1353C27.8063 13.3814 28.3503 13.9253 28.3503 14.5964C28.3503 15.2674 27.8063 15.8114 27.1353 15.8114H22.2753C21.6043 15.8114 21.0603 15.2674 21.0603 14.5964Z" fill="#E15B3B"/>
</svg>
