<svg width="40" height="40" viewBox="0 0 40 40" fill="none" xmlns="http://www.w3.org/2000/svg">
<circle cx="19.7688" cy="19.8045" r="18.928" fill="white" fill-opacity="0.2" stroke="white" stroke-width="1.456"/>
<path d="M15.336 20.5918H17.371V28.9692C17.371 29.1346 17.505 29.2686 17.6704 29.2686H21.1206C21.286 29.2686 21.4201 29.1346 21.4201 28.9692V20.6312H23.7594C23.9115 20.6312 24.0394 20.5171 24.0568 20.366L24.4121 17.2819C24.4219 17.197 24.395 17.112 24.3382 17.0484C24.2814 16.9847 24.2001 16.9482 24.1147 16.9482H21.4202V15.0149C21.4202 14.4321 21.734 14.1366 22.3529 14.1366C22.4411 14.1366 24.1147 14.1366 24.1147 14.1366C24.2801 14.1366 24.4141 14.0025 24.4141 13.8372V11.0062C24.4141 10.8408 24.2801 10.7068 24.1147 10.7068H21.6867C21.6696 10.706 21.6316 10.7046 21.5755 10.7046C21.1542 10.7046 19.6899 10.7873 18.5332 11.8514C17.2515 13.0307 17.4297 14.4426 17.4723 14.6874V16.9481H15.336C15.1706 16.9481 15.0366 17.0822 15.0366 17.2476V20.2923C15.0366 20.4577 15.1706 20.5918 15.336 20.5918Z" fill="white"/>
</svg>
