<svg width="148" height="43" viewBox="0 0 148 43" fill="none" xmlns="http://www.w3.org/2000/svg">
<path fill-rule="evenodd" clip-rule="evenodd" d="M17.9937 3.32856C17.5493 3.23716 17.0909 3.23716 16.6465 3.32856C16.1327 3.43422 15.6735 3.69141 15.3085 3.89588L15.209 3.95147L2.83664 10.825C2.80244 10.844 2.76719 10.8634 2.73108 10.8833C2.34464 11.0962 1.85875 11.3638 1.48561 11.7687C1.16301 12.1188 0.918874 12.5337 0.769529 12.9857C0.596789 13.5085 0.59881 14.0632 0.600417 14.5044C0.600567 14.5456 0.600714 14.5859 0.600714 14.625V28.1963C0.600714 28.2354 0.600567 28.2757 0.600417 28.3169C0.59881 28.7581 0.596789 29.3128 0.769529 29.8356C0.918875 30.2876 1.16301 30.7025 1.48561 31.0526C1.85875 31.4575 2.34464 31.7251 2.73108 31.938C2.76719 31.9579 2.80244 31.9773 2.83665 31.9963L15.209 38.8698L15.3085 38.9254C15.6736 39.1299 16.1327 39.3871 16.6465 39.4927C17.0909 39.5841 17.5493 39.5841 17.9937 39.4927C18.5075 39.3871 18.9667 39.1299 19.3317 38.9254L19.4312 38.8698L31.8036 31.9963C31.8187 31.9879 31.834 31.9794 31.8495 31.9708C31.8691 31.96 31.889 31.9491 31.9091 31.938C32.2955 31.7251 32.7814 31.4575 33.1546 31.0526C33.4772 30.7025 33.7213 30.2876 33.8707 29.8356C34.0434 29.3128 34.0414 28.7581 34.0398 28.3169C34.0396 28.2757 34.0395 28.2354 34.0395 28.1963V14.625C34.0395 14.5859 34.0396 14.5456 34.0398 14.5044C34.0414 14.0632 34.0434 13.5085 33.8707 12.9857C33.7213 12.5337 33.4772 12.1188 33.1546 11.7687C32.7814 11.3638 32.2956 11.0961 31.9091 10.8833L31.9078 10.8825C31.8721 10.8629 31.8373 10.8438 31.8036 10.825L19.4312 3.95147L19.3317 3.89588C18.9666 3.69141 18.5075 3.43422 17.9937 3.32856ZM16.8329 6.87454C17.0863 6.73378 17.2156 6.66266 17.3121 6.61612L17.3201 6.6123L17.3281 6.61612C17.4246 6.66266 17.5539 6.73378 17.8073 6.87454L28.9247 13.0509L17.32 19.498L5.7154 13.0509L16.8329 6.87454ZM3.94459 15.8924L15.6481 22.3944L15.6482 35.2885L4.46058 29.0732C4.19314 28.9246 4.05661 28.848 3.96081 28.787L3.95272 28.7818L3.95212 28.7722C3.94529 28.6588 3.94459 28.5022 3.94459 28.1963V15.8924Z" fill="#838080"/>
<path d="M49.2563 26.9982H54.5786V30.1345H45.1934V13.455H49.2563V26.9982Z" fill="#838080"/>
<path d="M58.3222 15.4984C57.6094 15.4984 57.0234 15.2925 56.564 14.8806C56.1205 14.4529 55.8987 13.9302 55.8987 13.3125C55.8987 12.6789 56.1205 12.1561 56.564 11.7443C57.0234 11.3166 57.6094 11.1028 58.3222 11.1028C59.0192 11.1028 59.5894 11.3166 60.033 11.7443C60.4923 12.1561 60.722 12.6789 60.722 13.3125C60.722 13.9302 60.4923 14.4529 60.033 14.8806C59.5894 15.2925 59.0192 15.4984 58.3222 15.4984ZM60.3418 16.8765V30.1345H56.2789V16.8765H60.3418Z" fill="#838080"/>
<path d="M68.0857 16.6864C69.0203 16.6864 69.8361 16.8765 70.533 17.2566C71.2458 17.6368 71.7923 18.1357 72.1725 18.7535V16.8765H76.2354V30.1108C76.2354 31.3305 75.9899 32.4313 75.4989 33.4134C75.0237 34.4113 74.2871 35.2033 73.2892 35.7894C72.3071 36.3755 71.0795 36.6685 69.6064 36.6685C67.6422 36.6685 66.0503 36.2013 64.8306 35.2667C63.6109 34.348 62.914 33.0966 62.7397 31.5126H66.7552C66.8819 32.0195 67.1829 32.4155 67.6581 32.7006C68.1333 33.0016 68.7193 33.1521 69.4163 33.1521C70.2558 33.1521 70.9211 32.9065 71.4121 32.4155C71.919 31.9403 72.1725 31.1721 72.1725 30.1108V28.2337C71.7765 28.8515 71.23 29.3584 70.533 29.7544C69.8361 30.1345 69.0203 30.3246 68.0857 30.3246C66.9928 30.3246 66.0028 30.0474 65.1157 29.493C64.2287 28.9228 63.5238 28.1229 63.0011 27.0933C62.4942 26.0478 62.2408 24.844 62.2408 23.4817C62.2408 22.1195 62.4942 20.9236 63.0011 19.894C63.5238 18.8644 64.2287 18.0724 65.1157 17.518C66.0028 16.9636 66.9928 16.6864 68.0857 16.6864ZM72.1725 23.5055C72.1725 22.4917 71.8874 21.6918 71.3171 21.1057C70.7627 20.5197 70.0816 20.2266 69.2737 20.2266C68.4659 20.2266 67.7769 20.5197 67.2066 21.1057C66.6522 21.676 66.375 22.468 66.375 23.4817C66.375 24.4955 66.6522 25.3033 67.2066 25.9053C67.7769 26.4913 68.4659 26.7844 69.2737 26.7844C70.0816 26.7844 70.7627 26.4913 71.3171 25.9053C71.8874 25.3192 72.1725 24.5193 72.1725 23.5055Z" fill="#838080"/>
<path d="M87.0869 16.7339C88.6075 16.7339 89.8272 17.2408 90.7459 18.2545C91.6646 19.2525 92.124 20.6305 92.124 22.3888V30.1345H88.0848V22.9353C88.0848 22.0482 87.8551 21.3592 87.3958 20.8681C86.9364 20.3771 86.3186 20.1316 85.5425 20.1316C84.7663 20.1316 84.1486 20.3771 83.6892 20.8681C83.2298 21.3592 83.0002 22.0482 83.0002 22.9353V30.1345H78.9372V12.5521H83.0002V18.6585C83.412 18.0724 83.9743 17.6051 84.6871 17.2566C85.3999 16.9081 86.1998 16.7339 87.0869 16.7339Z" fill="#838080"/>
<path d="M102.099 26.6893V30.1345H100.032C98.5589 30.1345 97.4105 29.7781 96.5868 29.0653C95.7631 28.3367 95.3513 27.1566 95.3513 25.5251V20.2504H93.7356V16.8765H95.3513V13.6451H99.4142V16.8765H102.075V20.2504H99.4142V25.5726C99.4142 25.9686 99.5093 26.2537 99.6994 26.428C99.8894 26.6022 100.206 26.6893 100.65 26.6893H102.099Z" fill="#838080"/>
<path d="M108.188 18.7535C108.568 18.1357 109.114 17.6368 109.827 17.2566C110.54 16.8765 111.356 16.6864 112.274 16.6864C113.367 16.6864 114.357 16.9636 115.244 17.518C116.131 18.0724 116.828 18.8644 117.335 19.894C117.858 20.9236 118.119 22.1195 118.119 23.4817C118.119 24.844 117.858 26.0478 117.335 27.0933C116.828 28.1229 116.131 28.9228 115.244 29.493C114.357 30.0474 113.367 30.3246 112.274 30.3246C111.34 30.3246 110.524 30.1425 109.827 29.7781C109.13 29.398 108.584 28.899 108.188 28.2813V30.1345H104.125V12.5521H108.188V18.7535ZM113.985 23.4817C113.985 22.468 113.7 21.676 113.13 21.1057C112.575 20.5197 111.886 20.2266 111.063 20.2266C110.255 20.2266 109.566 20.5197 108.995 21.1057C108.441 21.6918 108.164 22.4917 108.164 23.5055C108.164 24.5193 108.441 25.3192 108.995 25.9053C109.566 26.4913 110.255 26.7844 111.063 26.7844C111.87 26.7844 112.559 26.4913 113.13 25.9053C113.7 25.3033 113.985 24.4955 113.985 23.4817Z" fill="#838080"/>
<path d="M126.048 30.3246C124.749 30.3246 123.577 30.0474 122.532 29.493C121.502 28.9386 120.686 28.1466 120.085 27.117C119.498 26.0874 119.205 24.8836 119.205 23.5055C119.205 22.1433 119.506 20.9473 120.108 19.9177C120.71 18.8723 121.534 18.0724 122.579 17.518C123.625 16.9636 124.797 16.6864 126.096 16.6864C127.395 16.6864 128.567 16.9636 129.612 17.518C130.658 18.0724 131.481 18.8723 132.083 19.9177C132.685 20.9473 132.986 22.1433 132.986 23.5055C132.986 24.8677 132.677 26.0716 132.06 27.117C131.458 28.1466 130.626 28.9386 129.565 29.493C128.519 30.0474 127.347 30.3246 126.048 30.3246ZM126.048 26.8081C126.824 26.8081 127.482 26.523 128.02 25.9528C128.575 25.3825 128.852 24.5668 128.852 23.5055C128.852 22.4442 128.583 21.6285 128.044 21.0582C127.521 20.488 126.872 20.2029 126.096 20.2029C125.304 20.2029 124.646 20.488 124.124 21.0582C123.601 21.6126 123.34 22.4284 123.34 23.5055C123.34 24.5668 123.593 25.3825 124.1 25.9528C124.623 26.523 125.272 26.8081 126.048 26.8081Z" fill="#838080"/>
<path d="M142.745 30.1345L140.203 26.4517L138.064 30.1345H133.669L138.04 23.3629L133.55 16.8765H138.112L140.654 20.5355L142.792 16.8765H147.188L142.745 23.553L147.307 30.1345H142.745Z" fill="#838080"/>
</svg>
