<svg width="161" height="43" viewBox="0 0 161 43" fill="none" xmlns="http://www.w3.org/2000/svg">
<g clip-path="url(#clip0_3_1654)">
<path d="M24.1571 3.92152L20.4428 2.92627L17.3127 14.608L14.4868 4.06165L10.7724 5.05691L13.8257 16.4514L6.22082 8.84663L3.50174 11.5657L11.8433 19.9073L1.45521 17.1238L0.459961 20.8381L11.8102 23.8794C11.6803 23.3189 11.6115 22.7349 11.6115 22.1349C11.6115 17.8874 15.0548 14.4441 19.3023 14.4441C23.5498 14.4441 26.993 17.8874 26.993 22.1349C26.993 22.7311 26.9251 23.3115 26.7968 23.8687L37.1121 26.6326L38.1073 22.9183L26.7119 19.8649L37.1006 17.0812L36.1053 13.3669L24.7104 16.4202L32.3152 8.81541L29.5961 6.09633L21.3703 14.3222L24.1571 3.92152Z" fill="#838080"/>
<path d="M26.7859 23.9119C26.4675 25.2582 25.7951 26.4677 24.8727 27.4368L32.3456 34.9098L35.0647 32.1907L26.7859 23.9119Z" fill="#838080"/>
<path d="M24.7972 27.5149C23.8636 28.4684 22.6838 29.18 21.3607 29.5467L24.08 39.6952L27.7942 38.6999L24.7972 27.5149Z" fill="#838080"/>
<path d="M21.2219 29.5839C20.6081 29.7417 19.9647 29.8255 19.3016 29.8255C18.5912 29.8255 17.9034 29.7292 17.2503 29.5489L14.5286 39.7066L18.2429 40.7018L21.2219 29.5839Z" fill="#838080"/>
<path d="M17.119 29.5115C15.8161 29.1266 14.6572 28.4059 13.7427 27.4496L6.25133 34.941L8.97041 37.6601L17.119 29.5115Z" fill="#838080"/>
<path d="M13.681 27.3834C12.7821 26.421 12.1273 25.2277 11.8157 23.9022L1.46672 26.6752L2.46196 30.3895L13.681 27.3834Z" fill="#838080"/>
</g>
<path d="M60.4578 11.6545V25.0393L51.8778 11.6545H48.4458V30.1345H51.8778V16.8553L60.4578 30.1345H63.8898V11.6545H60.4578Z" fill="#838080"/>
<path d="M65.4363 15.1129H68.9739V11.6545H65.4363V15.1129ZM65.4891 30.1345V16.9345H68.9211V30.1345H65.4891Z" fill="#838080"/>
<path d="M83.6875 23.5345C83.6875 18.9673 80.4403 16.8025 77.0083 16.7761C73.5499 16.7497 70.3555 18.9673 70.3555 23.5345C70.3555 28.1017 73.5499 30.3193 77.0083 30.2929C80.1499 30.2665 82.3147 28.8145 83.3179 26.4121L80.6515 25.3033C79.8331 26.9401 78.5395 27.5209 77.0083 27.5473C75.6883 27.5737 74.1835 26.9401 73.8667 24.5905H83.6083C83.6611 24.2473 83.6875 23.9041 83.6875 23.5345ZM77.0083 19.4953C78.3283 19.5217 79.6747 20.2345 80.0971 22.1353H73.9195C74.3683 20.2081 75.7147 19.4689 77.0083 19.4953Z" fill="#838080"/>
<path d="M91.6191 19.3897V16.7761H89.4543V13.2385L86.0223 14.2945V16.7761H83.8575V19.3897H86.0223V26.2273C86.0223 28.8145 86.2335 30.1345 90.2463 30.1345H91.1703V27.1249H90.2463C89.6127 27.1249 89.4543 27.0193 89.4543 26.2273V19.3897H91.6191Z" fill="#838080"/>
<path d="M96.7188 27.2569L104.005 19.8121V16.9345H93.0756V19.8121H100.151L92.8644 27.2569V30.1345H104.084V27.2569H96.7188Z" fill="#838080"/>
<path d="M105.315 26.4121L108.773 25.8841C109.011 27.2041 110.569 27.7057 111.519 27.7057C112.496 27.7057 114.185 27.4945 114.185 25.9105C114.185 22.8217 105.711 26.6761 105.711 20.7625C105.711 16.9609 110.12 16.7497 111.519 16.7497C112.839 16.7497 116.667 16.9609 117.459 20.0233L114.185 20.7097C113.895 19.3105 112.417 19.0465 111.625 19.0465C110.833 19.0465 109.143 19.2313 109.143 20.7625C109.143 23.8249 117.617 19.9177 117.617 25.9105C117.617 29.9497 112.971 30.2929 111.519 30.2929C110.199 30.2929 106.001 29.9497 105.315 26.4121Z" fill="#838080"/>
<path d="M122.076 23.5345C122.076 26.7553 123.792 27.7321 125.587 27.7057C127.197 27.6793 128.306 27.0193 128.966 25.1713L131.791 26.5441C130.761 29.2369 128.253 30.2665 125.587 30.2929C122.129 30.3193 118.644 28.1017 118.644 23.5345C118.644 18.9673 122.129 16.7497 125.587 16.7761C128.253 16.8025 130.761 17.8321 131.791 20.5249L128.966 21.8977C128.306 20.0497 127.197 19.3897 125.587 19.3633C123.792 19.3369 122.076 20.3137 122.076 23.5345Z" fill="#838080"/>
<path d="M141.004 16.7233C139.236 16.7233 137.625 17.6473 136.596 19.6273V11.6545H133.164V30.1345H136.596V25.4617C136.596 19.4161 139.104 18.9145 140.028 18.9145C141.506 18.9145 141.717 20.4457 141.717 22.6897V30.1345H145.149V22.6897C145.149 19.8913 144.7 16.7233 141.004 16.7233Z" fill="#838080"/>
<path d="M159.639 23.5345C159.639 18.9673 156.392 16.8025 152.96 16.7761C149.502 16.7497 146.307 18.9673 146.307 23.5345C146.307 28.1017 149.502 30.3193 152.96 30.2929C156.102 30.2665 158.266 28.8145 159.27 26.4121L156.603 25.3033C155.785 26.9401 154.491 27.5209 152.96 27.5473C151.64 27.5737 150.135 26.9401 149.818 24.5905H159.56C159.613 24.2473 159.639 23.9041 159.639 23.5345ZM152.96 19.4953C154.28 19.5217 155.626 20.2345 156.049 22.1353H149.871C150.32 20.2081 151.666 19.4689 152.96 19.4953Z" fill="#838080"/>
<defs>
<clipPath id="clip0_3_1654">
<rect width="38.72" height="38.72" fill="white" transform="translate(0.160156 2.05444)"/>
</clipPath>
</defs>
</svg>
