<svg width="36" height="37" viewBox="0 0 36 37" fill="none" xmlns="http://www.w3.org/2000/svg">
<path d="M21.9256 7.36638C23.4412 4.96537 24.199 3.76486 25.192 3.40322C25.8754 3.15433 26.6246 3.15433 27.308 3.40322C28.301 3.76486 29.0588 4.96537 30.5744 7.36638C32.2803 10.0689 33.1333 11.4202 32.9831 12.5351C32.88 13.2999 32.4952 13.9985 31.9039 14.4941C31.042 15.2166 29.4447 15.2166 26.25 15.2166C23.0553 15.2166 21.458 15.2166 20.596 14.4941C20.0048 13.9985 19.62 13.2999 19.5169 12.5351C19.3667 11.4202 20.2197 10.0689 21.9256 7.36638Z" stroke="#E15B3B" stroke-width="2.25" stroke-linejoin="round"/>
<path d="M3 9.21655C3 6.71673 3 5.46682 3.63661 4.5906C3.84221 4.30762 4.09107 4.05876 4.37405 3.85316C5.25027 3.21655 6.50018 3.21655 9 3.21655C11.4998 3.21655 12.7497 3.21655 13.626 3.85316C13.9089 4.05876 14.1578 4.30762 14.3634 4.5906C15 5.46682 15 6.71673 15 9.21655C15 11.7164 15 12.9663 14.3634 13.8425C14.1578 14.1255 13.9089 14.3743 13.626 14.5799C12.7497 15.2166 11.4998 15.2166 9 15.2166C6.50018 15.2166 5.25027 15.2166 4.37405 14.5799C4.09107 14.3743 3.84221 14.1255 3.63661 13.8425C3 12.9663 3 11.7164 3 9.21655Z" stroke="#E15B3B" stroke-width="2.25" stroke-linejoin="round"/>
<circle cx="26.25" cy="27.2166" r="6" stroke="#E15B3B" stroke-width="2.25" stroke-linejoin="round"/>
<path d="M14.2499 21.9666L3.75 32.4666M3.75009 21.9666L14.25 32.4666" stroke="#E15B3B" stroke-width="2.25" stroke-linecap="round" stroke-linejoin="round"/>
</svg>
