<svg width="208" height="44" viewBox="0 0 208 44" fill="none" xmlns="http://www.w3.org/2000/svg">
<path d="M67.6391 16.9605C68.756 17.5495 69.6281 18.414 70.2554 19.5615C70.8827 20.709 71.1964 22.1013 71.1964 23.7231V34.2954H67.5167V24.2739C67.5167 22.6674 67.1113 21.4357 66.3157 20.5789C65.5124 19.7221 64.4185 19.2938 63.0262 19.2938C61.6339 19.2938 60.5399 19.7221 59.7214 20.5789C58.9028 21.4357 58.4974 22.6674 58.4974 24.2739V34.2954H54.7871V16.3714H58.4974V18.4216C59.1017 17.6872 59.882 17.1135 60.823 16.7004C61.7639 16.2873 62.7737 16.0807 63.8294 16.0807C65.237 16.0807 66.4993 16.3714 67.6238 16.9605H67.6391Z" fill="#838080"/>
<path d="M79.1067 33.4386C77.7373 32.6659 76.6663 31.5873 75.886 30.1873C75.1057 28.7874 74.7156 27.1656 74.7156 25.3219C74.7156 23.4783 75.1134 21.8871 75.9166 20.4718C76.7199 19.0642 77.8138 17.9779 79.2061 17.2206C80.5908 16.4632 82.1437 16.0807 83.8573 16.0807C85.5709 16.0807 87.1239 16.4632 88.5085 17.2206C89.8932 17.9779 90.9948 19.0642 91.798 20.4718C92.6013 21.8794 92.9991 23.5012 92.9991 25.3219C92.9991 27.1426 92.586 28.7644 91.7598 30.172C90.9336 31.5796 89.809 32.6736 88.3938 33.4386C86.9709 34.2113 85.4026 34.5938 83.689 34.5938C81.9754 34.5938 80.4684 34.2113 79.099 33.4386H79.1067ZM86.3818 30.6922C87.2157 30.2332 87.8965 29.5524 88.4167 28.642C88.9369 27.7317 89.197 26.6224 89.197 25.3219C89.197 24.0214 88.9446 22.9198 88.4473 22.0171C87.9501 21.1144 87.2845 20.4412 86.466 19.9822C85.6398 19.5233 84.7524 19.3014 83.7961 19.3014C82.8399 19.3014 81.9601 19.5309 81.1416 19.9822C80.323 20.4336 79.6804 21.1144 79.2061 22.0171C78.7318 22.9198 78.487 24.0214 78.487 25.3219C78.487 27.2497 78.9766 28.7415 79.9711 29.7972C80.958 30.8529 82.1973 31.3731 83.6967 31.3731C84.6529 31.3731 85.548 31.1436 86.3818 30.6922Z" fill="#838080"/>
<path d="M101.009 19.4009V29.3229C101.009 29.9961 101.169 30.4781 101.483 30.7688C101.797 31.0595 102.332 31.2048 103.097 31.2048H105.377V34.2954H102.447C100.779 34.2954 99.494 33.9053 98.6066 33.125C97.7192 32.3447 97.2755 31.0748 97.2755 29.3153V19.3932H95.1641V16.3638H97.2755V11.9039H101.016V16.3638H105.377V19.3932H101.016L101.009 19.4009Z" fill="#838080"/>
<path d="M113.111 19.4009V29.3229C113.111 29.9961 113.272 30.4781 113.585 30.7688C113.899 31.0595 114.434 31.2048 115.199 31.2048H117.479V34.2954H114.549C112.881 34.2954 111.596 33.9053 110.709 33.125C109.821 32.3447 109.378 31.0748 109.378 29.3153V19.3932H107.266V16.3638H109.378V11.9039H113.119V16.3638H117.479V19.3932H113.119L113.111 19.4009Z" fill="#838080"/>
<path d="M121.082 13.3114C120.623 12.8524 120.401 12.294 120.401 11.6208C120.401 10.9476 120.631 10.3815 121.082 9.93012C121.541 9.47112 122.1 9.24927 122.773 9.24927C123.446 9.24927 123.974 9.47877 124.433 9.93012C124.892 10.3891 125.114 10.9476 125.114 11.6208C125.114 12.294 124.884 12.8601 124.433 13.3114C123.974 13.7704 123.423 13.9923 122.773 13.9923C122.123 13.9923 121.534 13.7628 121.082 13.3114ZM124.594 16.3714V34.303H120.883V16.3714H124.594Z" fill="#838080"/>
<path d="M145.784 26.7219H132.083C132.19 28.1525 132.725 29.2999 133.674 30.172C134.63 31.0365 135.8 31.4725 137.185 31.4725C139.182 31.4725 140.589 30.6387 141.416 28.9634H145.417C144.873 30.6158 143.894 31.9621 142.471 33.0179C141.048 34.0735 139.289 34.5938 137.185 34.5938C135.472 34.5938 133.934 34.2113 132.58 33.4386C131.226 32.6659 130.162 31.5873 129.39 30.1873C128.617 28.7874 128.235 27.1656 128.235 25.3219C128.235 23.4783 128.609 21.8565 129.359 20.4565C130.109 19.0566 131.157 17.9779 132.519 17.2206C133.873 16.4632 135.433 16.0807 137.185 16.0807C138.937 16.0807 140.383 16.448 141.706 17.19C143.03 17.9244 144.062 18.9648 144.797 20.2959C145.531 21.627 145.906 23.1646 145.906 24.9012C145.906 25.5744 145.86 26.1788 145.776 26.7219H145.784ZM142.043 23.7308C142.02 22.3614 141.53 21.2675 140.582 20.4413C139.625 19.6151 138.447 19.2019 137.032 19.2019C135.755 19.2019 134.661 19.6074 133.743 20.426C132.832 21.2368 132.289 22.3384 132.113 23.7308H142.035H142.043Z" fill="#838080"/>
<path d="M149.364 33.8441C148.905 33.3851 148.683 32.8266 148.683 32.1534C148.683 31.4802 148.913 30.9141 149.364 30.4628C149.823 30.0038 150.382 29.7819 151.055 29.7819C151.728 29.7819 152.256 30.0114 152.715 30.4628C153.174 30.9218 153.396 31.4802 153.396 32.1534C153.396 32.8266 153.166 33.3927 152.715 33.8441C152.256 34.3031 151.705 34.5249 151.055 34.5249C150.405 34.5249 149.816 34.2954 149.364 33.8441Z" fill="#838080"/>
<path d="M170.233 16.9605C171.35 17.5495 172.222 18.414 172.849 19.5615C173.477 20.709 173.79 22.1013 173.79 23.7231V34.2954H170.111V24.2739C170.111 22.6674 169.705 21.4357 168.91 20.5789C168.106 19.7221 167.012 19.2938 165.62 19.2938C164.228 19.2938 163.134 19.7221 162.315 20.5789C161.497 21.4357 161.091 22.6674 161.091 24.2739V34.2954H157.381V16.3714H161.091V18.4216C161.696 17.6872 162.476 17.1135 163.417 16.7004C164.358 16.2873 165.368 16.0807 166.423 16.0807C167.831 16.0807 169.093 16.3714 170.218 16.9605H170.233Z" fill="#838080"/>
<path d="M194.821 26.7219H181.119C181.227 28.1525 181.762 29.2999 182.711 30.172C183.659 31.0441 184.837 31.4725 186.222 31.4725C188.219 31.4725 189.626 30.6387 190.452 28.9634H194.453C193.91 30.6158 192.931 31.9621 191.508 33.0179C190.085 34.0735 188.326 34.5938 186.222 34.5938C184.508 34.5938 182.971 34.2113 181.617 33.4386C180.263 32.6659 179.199 31.5873 178.427 30.1873C177.654 28.7874 177.271 27.1656 177.271 25.3219C177.271 23.4783 177.646 21.8565 178.396 20.4565C179.146 19.0566 180.194 17.9779 181.555 17.2206C182.91 16.4632 184.47 16.0807 186.222 16.0807C187.974 16.0807 189.42 16.448 190.743 17.19C192.067 17.9244 193.099 18.9648 193.834 20.2959C194.568 21.627 194.943 23.1646 194.943 24.9012C194.943 25.5744 194.897 26.1788 194.813 26.7219H194.821ZM191.08 23.7308C191.057 22.3614 190.567 21.2675 189.619 20.4413C188.662 19.6151 187.484 19.2019 186.069 19.2019C184.791 19.2019 183.697 19.6074 182.787 20.426C181.877 21.2368 181.334 22.3384 181.158 23.7308H191.087H191.08Z" fill="#838080"/>
<path d="M202.922 19.4009V29.3229C202.922 29.9961 203.075 30.4781 203.396 30.7688C203.71 31.0595 204.245 31.2048 205.01 31.2048H207.29V34.2954H204.36C202.693 34.2954 201.407 33.9053 200.52 33.125C199.632 32.3447 199.189 31.0748 199.189 29.3153V19.3932H197.077V16.3638H199.189V11.9039H202.93V16.3638H207.29V19.3932H202.93L202.922 19.4009Z" fill="#838080"/>
<path d="M38.4545 26.4159C39.2271 24.3351 39.6479 22.0783 39.6555 19.7298C39.7014 9.03506 31.011 0.237555 20.324 0.138105C9.46099 0.0386552 0.625244 8.81321 0.625244 19.6533C0.625244 30.4933 9.36154 39.1684 20.1404 39.1684C22.5501 39.1684 24.8604 38.7324 26.9871 37.9291C30.0089 36.7969 33.4284 37.669 35.5245 40.1247C36.4502 41.211 37.2228 42.435 37.8195 43.6972L37.1769 36.1084C36.9015 32.8189 37.307 29.4988 38.4468 26.4006L38.4545 26.4159ZM21.6245 17.9856C21.6704 17.7867 21.678 17.5725 21.6245 17.343C21.4638 16.6392 20.8289 16.1266 20.1098 16.1419C19.2836 16.1572 18.6257 16.8304 18.6257 17.6566C18.6257 17.7714 18.641 17.8785 18.6639 17.9856C16.0476 18.6435 14.1122 21.015 14.1122 23.8378C14.1122 26.3547 12.5745 28.512 10.3866 29.4147V19.6533C10.3866 16.9605 11.4806 14.5125 13.2477 12.7453C15.0149 10.9782 17.4552 9.8842 20.148 9.8842C22.8408 9.8842 25.2812 10.9782 27.0483 12.7453C28.8155 14.5125 29.9094 16.9528 29.9094 19.6533V29.4147C27.7215 28.5043 26.1839 26.347 26.1839 23.8378C26.1839 21.015 24.2484 18.6435 21.6321 17.9856H21.6245Z" fill="#838080"/>
</svg>
