<svg width="151" height="32" viewBox="0 0 151 32" fill="none" xmlns="http://www.w3.org/2000/svg">
<path d="M26.3078 2.4007L9.13482 19.5591L0.504883 10.9292H7.68685L9.13482 12.3772L19.1259 2.4007H26.3078Z" fill="#838080"/>
<path d="M29.9142 24.9306L34.4319 29.4338H4.2561L30.1894 3.51514L30.2328 3.5441V9.85723L15.1738 24.9306H29.9142Z" fill="#838080"/>
<path d="M48.45 21.1634H57.0524V24.5848H43.4319V21.8151L51.9365 11.4205H43.6926V7.99911H56.9546V10.7688L48.45 21.1634Z" fill="#838080"/>
<path d="M75.8017 1.77539H80.2006L71.533 24.5848H66.9711L58.3036 1.77539H62.7025L69.2521 19.7948L75.8017 1.77539Z" fill="#838080"/>
<path d="M96.5134 17.4813H84.1637C84.5873 20.1207 86.3143 21.587 89.0515 21.587C90.9414 21.587 92.4729 20.9027 93.6785 19.5016L96.0572 21.8477C94.4932 23.9005 91.9515 25.041 88.9211 25.041C83.6424 25.041 80.1232 21.5544 80.1232 16.3734C80.1232 11.225 83.5446 7.54292 88.5301 7.54292C93.3201 7.54292 96.6112 10.8992 96.6112 15.9498C96.6112 16.4386 96.5786 16.9599 96.5134 17.4813ZM84.1637 14.7768H92.6358C92.4729 12.3329 90.9414 10.9969 88.5627 10.9969C86.1188 10.9969 84.5873 12.3981 84.1637 14.7768Z" fill="#838080"/>
<path d="M110.681 7.93394V11.6486C109.997 11.5509 109.378 11.4857 108.856 11.4857C105.891 11.4857 104.425 13.0172 104.425 16.406V24.5848H100.45V7.99911H104.36V10.7688C105.174 8.84631 106.999 7.70584 109.247 7.70584C109.769 7.70584 110.258 7.77101 110.681 7.93394Z" fill="#838080"/>
<path d="M113.452 2.75294C113.452 1.31921 114.462 0.276489 115.994 0.276489C117.46 0.276489 118.503 1.31921 118.503 2.75294C118.503 4.18668 117.46 5.22939 115.994 5.22939C114.462 5.22939 113.452 4.18668 113.452 2.75294ZM114.006 24.5848V7.99911H117.982V24.5848H114.006Z" fill="#838080"/>
<path d="M124.413 24.5848V11.4857H121.22V7.99911H124.413V5.8485C124.413 2.29675 126.238 0.439414 130.181 0.439414C131.126 0.439414 132.038 0.537169 132.886 0.732678V4.08892C132.136 3.95858 131.484 3.89341 130.93 3.89341C129.138 3.89341 128.389 4.57769 128.389 6.17435V7.99911H132.853V11.4857H128.389V24.5848H124.413Z" fill="#838080"/>
<path d="M146.682 7.99911H150.625V22.923C150.625 28.495 147.53 31.558 142.055 31.558C139.22 31.558 136.614 30.7108 135.05 29.2445L136.842 26.3444C138.243 27.4197 140.035 28.0062 141.827 28.0062C144.923 28.0062 146.715 26.2141 146.715 22.923V21.4892C145.77 23.314 143.75 24.4219 141.306 24.4219C137.754 24.4219 135.571 22.1735 135.571 18.1656V7.99911H139.546V17.1555C139.546 19.6645 140.556 20.805 142.674 20.805C145.118 20.805 146.682 19.3061 146.682 16.9274V7.99911Z" fill="#838080"/>
</svg>
