<svg width="143" height="40" viewBox="0 0 143 40" fill="none" xmlns="http://www.w3.org/2000/svg">
<path d="M77.829 18.5988C76.9171 17.4621 75.635 16.6817 74.2065 16.3938C74.8103 16.2149 75.3793 15.9349 75.8895 15.5658C76.3115 15.2522 76.6846 14.8776 76.9965 14.4543C77.2683 14.0709 77.4849 13.6513 77.64 13.2078C77.7873 12.8119 77.8929 12.4016 77.955 11.9838C77.9978 11.6178 78.0203 11.2498 78.0225 10.8813C78.0225 8.58029 77.1915 6.93029 75.5295 5.93129C73.8645 4.94129 71.349 4.44629 67.965 4.44629H60V30.0243H69.45C72.45 30.0243 74.8065 29.3913 76.5195 28.1253C78.2325 26.8593 79.0845 25.0218 79.0755 22.6128C79.1274 21.1721 78.6878 19.7566 77.829 18.5988ZM64.725 7.95179H67.7895C69.7575 7.95179 71.19 8.20229 72.087 8.70329C72.984 9.20429 73.434 10.1223 73.437 11.4573C73.437 13.8573 71.8755 15.0483 68.7525 15.0303H64.7025L64.725 7.95179ZM68.8245 26.6043H64.725V18.3243H68.6895C70.5885 18.3243 71.988 18.6393 72.897 19.2648C73.806 19.8903 74.247 20.9208 74.247 22.3518C74.2605 25.1913 72.4425 26.6043 68.8245 26.6043Z" fill="#838080"/>
<path d="M94.3394 10.8543V22.8738C94.3394 24.3183 94.0424 25.3533 93.4619 25.9878C92.8814 26.6223 91.9409 26.9373 90.6629 26.9373C89.3849 26.9373 88.4129 26.6178 87.8144 25.9788C87.2159 25.3398 86.9144 24.3048 86.9144 22.8738V10.8543H82.3289V23.0493C82.3289 25.4493 83.0879 27.2748 84.6059 28.5258C86.1239 29.7768 88.1249 30.3978 90.6089 30.3888C93.0929 30.3888 95.0969 29.7633 96.6209 28.5123C98.1449 27.2613 98.9054 25.4403 98.9024 23.0493V10.8543H94.3394Z" fill="#838080"/>
<path d="M119.188 13.1043C117.802 11.3043 115.888 10.4043 113.446 10.4043C112.294 10.3805 111.153 10.6381 110.123 11.1549C109.092 11.6717 108.204 12.4319 107.533 13.3698C107.605 11.9028 107.637 10.5978 107.637 9.4413V3.5058L103.074 3.8073V30.0018H107.029L107.479 27.5628C108.077 28.3972 108.872 29.0711 109.792 29.5248C110.883 30.1055 112.103 30.4026 113.338 30.3888C114.456 30.4256 115.566 30.19 116.573 29.7024C117.58 29.2148 118.452 28.4898 119.116 27.5898C120.556 25.7268 121.275 23.2713 121.272 20.2233C121.272 17.2953 120.577 14.9223 119.188 13.1043ZM115.489 25.1958C115.136 25.7361 114.652 26.1777 114.081 26.4792C113.51 26.7807 112.872 26.9321 112.227 26.9193C111.557 26.9556 110.889 26.822 110.285 26.5309C109.681 26.2398 109.16 25.8007 108.771 25.2543C107.997 24.1503 107.608 22.4253 107.605 20.0793C107.638 15.9063 109.201 13.8183 112.294 13.8153C112.927 13.7981 113.555 13.9389 114.12 14.2248C114.684 14.5108 115.169 14.933 115.53 15.4533C116.326 16.5513 116.718 18.1533 116.718 20.2863C116.718 22.4193 116.317 24.0393 115.489 25.1958Z" fill="#838080"/>
<path d="M140.141 13.1043C138.521 11.3043 136.281 10.4043 133.422 10.4043C130.455 10.4043 128.16 11.2953 126.537 13.0773C124.914 14.8593 124.1 17.2968 124.094 20.3898C124.094 23.3898 124.908 25.8078 126.537 27.6438C128.166 29.4798 130.397 30.3978 133.229 30.3978C136.184 30.3978 138.479 29.4978 140.114 27.6978C141.749 25.8978 142.568 23.4648 142.571 20.3988C142.571 17.3628 141.761 14.9313 140.141 13.1043ZM136.838 25.2093C136.451 25.7669 135.928 26.2155 135.318 26.5118C134.708 26.8082 134.032 26.9423 133.355 26.9013C132.672 26.9429 131.99 26.8093 131.373 26.5131C130.756 26.217 130.225 25.7682 129.831 25.2093C129.039 24.0783 128.645 22.4688 128.648 20.3808C128.648 18.2523 129.039 16.6323 129.822 15.5073C130.215 14.9543 130.742 14.5101 131.354 14.2166C131.965 13.923 132.641 13.7895 133.319 13.8288C134.891 13.8288 136.064 14.3853 136.838 15.4983C137.612 16.6113 137.996 18.2388 137.99 20.3808C137.99 22.4868 137.616 24.0978 136.838 25.2273V25.2093Z" fill="#838080"/>
<path d="M41.8876 3.33477C41.7391 3.43827 41.6041 3.55077 41.4376 3.64977C40.0685 4.58539 38.6038 5.37281 37.0681 5.99877C36.2671 6.34977 35.4436 6.67377 34.6291 7.00227C32.2396 7.95627 29.8546 9.01377 27.7621 10.6473C26.8472 11.354 26.0005 12.145 25.2331 13.0098C24.4069 13.9287 23.6687 14.923 23.0281 15.9798C22.9426 16.1238 22.8436 16.2588 22.7401 16.4028C22.6351 16.2671 22.5375 16.1259 22.4476 15.9798C21.8071 14.9241 21.0705 13.9299 20.2471 13.0098C19.4782 12.1449 18.63 11.354 17.7136 10.6473C15.6256 9.01377 13.2496 7.94727 10.8286 7.00227C10.0096 6.67377 9.18613 6.35427 8.38963 5.99877C6.85307 5.37364 5.38692 4.58777 4.01563 3.65427C3.87613 3.55527 3.73663 3.44277 3.58813 3.33927C5.46995 3.20051 7.36153 3.39241 9.17713 3.90627C9.37866 3.97209 9.59203 3.99358 9.80263 3.96927C12.1921 1.91277 17.0791 0.504272 22.7401 0.504272C28.4011 0.504272 33.2836 1.91277 35.6731 3.96927C35.8808 3.99173 36.0908 3.97026 36.2896 3.90627C38.1077 3.3893 40.0026 3.19585 41.8876 3.33477Z" fill="#838080"/>
<path d="M12.6824 9.95432C12.0613 9.95439 11.4541 10.1381 10.9371 10.4822C10.4201 10.8264 10.0164 11.3157 9.77673 11.8887C9.53705 12.4617 9.47209 13.0927 9.59003 13.7025C9.70797 14.3123 10.0035 14.8736 10.4396 15.3159C10.8756 15.7581 11.4327 16.0616 12.0407 16.1882C12.6488 16.3148 13.2807 16.2588 13.857 16.0273C14.4333 15.7957 14.9283 15.399 15.2798 14.8869C15.6313 14.3749 15.8235 13.7703 15.8324 13.1493C15.8433 12.7306 15.7696 12.3139 15.6158 11.9243C15.4619 11.5347 15.231 11.1801 14.9369 10.8818C14.6429 10.5835 14.2916 10.3477 13.9042 10.1883C13.5168 10.0289 13.1013 9.94934 12.6824 9.95432ZM12.6284 14.5758C12.3393 14.5722 12.0578 14.4826 11.8197 14.3186C11.5817 14.1546 11.3977 13.9236 11.2913 13.6548C11.1848 13.386 11.1607 13.0916 11.2219 12.809C11.2832 12.5265 11.4271 12.2685 11.6353 12.0679C11.8435 11.8674 12.1066 11.7332 12.3912 11.6825C12.6759 11.6318 12.9691 11.6669 13.2338 11.7833C13.4984 11.8997 13.7225 12.0921 13.8775 12.3362C14.0325 12.5802 14.1115 12.8648 14.1044 13.1538C14.0927 13.537 13.9319 13.9005 13.6562 14.1669C13.3805 14.4334 13.0118 14.5817 12.6284 14.5803V14.5758Z" fill="#838080"/>
<path d="M32.9145 9.95428C32.2928 9.95432 31.6851 10.1383 31.1678 10.483C30.6505 10.8278 30.2467 11.3179 30.0074 11.8917C29.7681 12.4654 29.7039 13.0972 29.8229 13.7073C29.9419 14.3175 30.2388 14.8788 30.6762 15.3206C31.1136 15.7623 31.6719 16.0648 32.2809 16.1899C32.8898 16.3149 33.5222 16.257 34.0983 16.0234C34.6744 15.7899 35.1685 15.391 35.5184 14.8772C35.8683 14.3633 36.0583 13.7574 36.0645 13.1358C36.0723 12.7185 35.9964 12.3039 35.8413 11.9164C35.6862 11.5289 35.4549 11.1765 35.1613 10.8799C34.8676 10.5833 34.5175 10.3486 34.1316 10.1896C33.7457 10.0306 33.3318 9.9506 32.9145 9.95428ZM32.9145 14.5758C32.6261 14.5784 32.3435 14.4955 32.1023 14.3376C31.861 14.1796 31.6721 13.9536 31.5592 13.6882C31.4464 13.4228 31.4149 13.13 31.4685 12.8466C31.5221 12.5633 31.6586 12.3023 31.8606 12.0965C32.0626 11.8907 32.3211 11.7494 32.6034 11.6906C32.8857 11.6317 33.1791 11.6578 33.4465 11.7657C33.7139 11.8736 33.9433 12.0583 34.1058 12.2966C34.2682 12.5349 34.3563 12.8159 34.359 13.1043C34.3603 13.4884 34.2114 13.8578 33.944 14.1336C33.6766 14.4094 33.312 14.5697 32.928 14.5803L32.9145 14.5758Z" fill="#838080"/>
<path d="M22.7536 31.2033C20.8231 28.9263 20.3596 26.0238 21.7546 23.9493C22.0516 24.5613 22.3441 25.1688 22.6996 25.9113C23.0416 25.2048 23.3161 24.6333 23.5996 24.0663C25.0981 25.7673 24.7696 28.7778 22.7536 31.2033Z" fill="#838080"/>
<path d="M45.1905 15.7143C45.1928 18.9917 44.1317 22.1814 42.1665 24.8043C42.1315 24.8568 42.0923 24.9064 42.0495 24.9528C40.0715 27.3153 37.5148 29.1246 34.629 30.2043L34.5435 30.2358C30.4395 31.8828 26.8395 34.2543 24.0225 37.6068C23.874 37.7778 23.73 37.9578 23.5725 38.1333C23.415 38.3088 23.3025 38.4753 23.172 38.6508L22.9425 38.9658C22.8705 39.0693 22.8165 39.1728 22.722 39.3303C22.6275 39.1728 22.5735 39.0693 22.5015 38.9658L22.272 38.6508L21.8895 38.1333C21.7455 37.9578 21.606 37.7778 21.4395 37.6068C18.636 34.2543 15.054 31.8828 10.9365 30.2448L10.851 30.2043C7.97046 29.1283 5.41724 27.3254 3.43952 24.9708C3.39281 24.9191 3.35065 24.8633 3.31352 24.8043C1.34365 22.1651 0.282774 18.9582 0.290077 15.6648C0.297379 12.3715 1.37247 9.16932 3.35402 6.53882C4.82552 7.30382 6.27902 8.05982 7.70102 8.78882C7.29591 9.57366 6.93826 10.3821 6.63002 11.2098C6.26484 12.289 6.16906 13.4412 6.35102 14.5659C6.53298 15.6906 6.98717 16.7538 7.67402 17.6628C9.99152 20.8128 14.271 20.7228 16.4535 17.4378C16.9022 16.6562 17.2991 15.846 17.6415 15.0123C17.743 15.098 17.8378 15.1912 17.925 15.2913C19.0005 16.4928 20.0625 17.7123 21.147 18.9138C21.4215 19.2198 21.363 19.3908 21.093 19.6428C19.6971 20.8495 18.6421 22.4011 18.033 24.1428C17.6482 25.1946 17.4893 26.3157 17.5669 27.433C17.6444 28.5503 17.9566 29.6388 18.483 30.6273C19.752 32.9808 21.2235 35.2218 22.6455 37.5708C22.6455 37.6068 22.686 37.6383 22.7085 37.6788L22.7715 37.5708C24.2295 35.2443 25.701 33.0033 26.97 30.6543C27.5001 29.6674 27.8162 28.5798 27.8976 27.4624C27.979 26.3451 27.824 25.2232 27.4425 24.1698C26.8318 22.4289 25.777 20.8778 24.3825 19.6698C24.1125 19.4178 24.054 19.2468 24.324 18.9408C25.413 17.7393 26.4705 16.5198 27.5505 15.3183C27.6378 15.2182 27.7326 15.125 27.834 15.0393C28.1746 15.8738 28.5716 16.6842 29.022 17.4648C31.2 20.7498 35.484 20.8623 37.8015 17.6898C38.4884 16.7808 38.9426 15.7176 39.1245 14.5929C39.3065 13.4682 39.2107 12.316 38.8455 11.2368C38.5373 10.4091 38.1796 9.60066 37.7745 8.81582C39.1965 8.06882 40.65 7.31282 42.1215 6.56582C44.1151 9.19889 45.1929 12.4117 45.1905 15.7143Z" fill="#838080"/>
</svg>
