<svg width="97" height="58" viewBox="0 0 97 58" fill="none" xmlns="http://www.w3.org/2000/svg">
<path fill-rule="evenodd" clip-rule="evenodd" d="M25.1855 35.295L21.732 30.6877L26.5767 27.5759C30.0255 25.3607 30.2355 20.7001 27.4278 18.3996L20.1543 12.4399C16.9371 9.80388 11.5229 11.4982 10.4847 15.9593L8.47246 24.6059C8.27911 25.4368 8.27499 26.1949 8.39536 26.871L8.73436 28.775L7.77872 30.4564C7.46718 31.0046 7.23056 31.6273 7.09878 32.3283L5.46208 41.0351C4.68822 45.1518 8.52957 48.6831 12.8342 47.2669L21.9872 44.2556C26.1457 42.8875 27.2967 38.1115 25.1855 35.295ZM29.4713 32.0825C29.7787 32.4926 30.0515 32.9188 30.2903 33.3577C33.4182 39.1048 30.7221 47.0204 23.6611 49.3434L14.5081 52.3547C6.45228 55.005 -1.35196 48.2919 0.198178 40.0456L1.83488 31.3388C2.07714 30.05 2.52078 28.868 3.12219 27.8098C2.87386 26.4151 2.89909 24.9245 3.25576 23.3919L5.26801 14.7452C7.17094 6.56827 17.1452 3.04996 23.5489 8.29691L30.8224 14.2566C36.3184 18.7598 35.7474 26.7837 30.7935 31.0914C30.3826 31.4487 29.9415 31.7805 29.4713 32.0825Z" fill="#838080"/>
<path d="M43.3909 43.3859C42.2332 43.3859 41.1527 43.1801 40.1493 42.7685C39.1717 42.3568 38.387 41.7394 37.7953 40.9161C37.2036 40.0671 36.9077 39.0252 36.9077 37.7903C36.9077 36.0408 37.4994 34.6387 38.6829 33.5839C39.892 32.5033 41.7444 31.963 44.2399 31.963H50.1057V31.1526C50.1057 30.2779 49.9642 29.5833 49.6812 29.0687C49.424 28.5542 48.9351 28.1812 48.2148 27.9496C47.5201 27.7181 46.4911 27.6023 45.1275 27.6023C42.9664 27.6023 40.9469 27.9239 39.0688 28.5671V25.4412C39.892 25.1068 40.8954 24.8366 42.0789 24.6308C43.2623 24.425 44.5358 24.3221 45.8993 24.3221C48.575 24.3221 50.6074 24.8624 51.9967 25.9429C53.4117 27.0234 54.1192 28.7857 54.1192 31.2298V43H50.5302L50.2601 41.1476C49.514 41.868 48.5878 42.4211 47.4816 42.807C46.401 43.193 45.0375 43.3859 43.3909 43.3859ZM44.5101 40.3758C45.7707 40.3758 46.8641 40.17 47.7903 39.7584C48.7422 39.321 49.514 38.7422 50.1057 38.0218V34.8188H44.3171C43.0822 34.8188 42.1818 35.0632 41.6158 35.552C41.0755 36.0151 40.8054 36.7354 40.8054 37.7131C40.8054 38.665 41.1269 39.3467 41.7701 39.7584C42.4133 40.17 43.3266 40.3758 44.5101 40.3758ZM61.1795 49.792C59.7902 49.792 58.6067 49.6119 57.6291 49.2517V46.1258C58.0665 46.2802 58.4652 46.3831 58.8254 46.4346C59.2113 46.486 59.5972 46.5118 59.9831 46.5118C60.7807 46.5118 61.4239 46.3831 61.9127 46.1258C62.4015 45.8686 62.826 45.4569 63.1862 44.8909C63.5721 44.3507 63.9837 43.6432 64.4211 42.7685L56.2784 24.708H60.6392L66.505 38.2919L72.448 24.708H76.7701L69.3221 41.9581C68.6789 43.5017 67.9843 44.8524 67.2382 46.0101C66.5178 47.1935 65.6688 48.1197 64.6912 48.7886C63.7393 49.4575 62.5687 49.792 61.1795 49.792ZM83.3007 43.3859C82.143 43.3859 81.0624 43.1801 80.0591 42.7685C79.0814 42.3568 78.2968 41.7394 77.705 40.9161C77.1133 40.0671 76.8174 39.0252 76.8174 37.7903C76.8174 36.0408 77.4092 34.6387 78.5926 33.5839C79.8018 32.5033 81.6542 31.963 84.1497 31.963H90.0155V31.1526C90.0155 30.2779 89.874 29.5833 89.591 29.0687C89.3337 28.5542 88.8449 28.1812 88.1245 27.9496C87.4299 27.7181 86.4008 27.6023 85.0373 27.6023C82.8762 27.6023 80.8566 27.9239 78.9785 28.5671V25.4412C79.8018 25.1068 80.8052 24.8366 81.9886 24.6308C83.1721 24.425 84.4456 24.3221 85.8091 24.3221C88.4847 24.3221 90.5172 24.8624 91.9064 25.9429C93.3214 27.0234 94.0289 28.7857 94.0289 31.2298V43H90.44L90.1698 41.1476C89.4238 41.868 88.4976 42.4211 87.3913 42.807C86.3108 43.193 84.9472 43.3859 83.3007 43.3859ZM84.4198 40.3758C85.6805 40.3758 86.7739 40.17 87.7 39.7584C88.6519 39.321 89.4238 38.7422 90.0155 38.0218V34.8188H84.2269C82.992 34.8188 82.0915 35.0632 81.5255 35.552C80.9852 36.0151 80.7151 36.7354 80.7151 37.7131C80.7151 38.665 81.0367 39.3467 81.6799 39.7584C82.3231 40.17 83.2364 40.3758 84.4198 40.3758Z" fill="#838080"/>
</svg>
