<svg width="40" height="40" viewBox="0 0 40 40" fill="none" xmlns="http://www.w3.org/2000/svg">
<circle cx="19.7288" cy="19.8045" r="18.928" fill="white" fill-opacity="0.2" stroke="white" stroke-width="1.456"/>
<path d="M24.0962 14.4956C23.5393 14.4956 23.1216 14.9133 23.1216 15.4702C23.1216 16.0271 23.5393 16.4448 24.0962 16.4448C24.6531 16.4448 25.0708 16.0271 25.0708 15.4702C25.0708 14.9133 24.6531 14.4956 24.0962 14.4956Z" fill="white"/>
<path d="M19.7103 15.7485C17.413 15.7485 15.603 17.6281 15.603 19.8558C15.603 22.0835 17.4826 23.9631 19.7103 23.9631C21.938 23.9631 23.8176 22.0835 23.8176 19.8558C23.8176 17.6281 22.0076 15.7485 19.7103 15.7485ZM19.7103 22.5012C18.2484 22.5012 17.0649 21.3177 17.0649 19.8558C17.0649 18.3939 18.2484 17.2105 19.7103 17.2105C21.1722 17.2105 22.3557 18.3939 22.3557 19.8558C22.3557 21.3177 21.1722 22.5012 19.7103 22.5012Z" fill="white"/>
<path d="M23.0518 11.4326H16.4383C13.5841 11.4326 11.3564 13.6603 11.3564 16.4449V23.0583C11.3564 25.8429 13.5841 28.0706 16.3687 28.0706H22.9822C25.7667 28.0706 27.9944 25.8429 27.9944 23.0583V16.4449C28.064 13.6603 25.8364 11.4326 23.0518 11.4326ZM26.4629 23.1279C26.4629 25.0075 24.9314 26.6087 22.9822 26.6087H16.3687C14.4891 26.6087 12.888 25.0772 12.888 23.1279V16.5145C12.888 14.6349 14.4195 13.0338 16.3687 13.0338H22.9822C24.8618 13.0338 26.4629 14.5653 26.4629 16.5145V23.1279Z" fill="white"/>
</svg>
