<svg width="39" height="40" viewBox="0 0 39 40" fill="none" xmlns="http://www.w3.org/2000/svg">
<path d="M21.87 21.8366V19.4066C21.87 17.1313 21.87 15.9937 21.324 15.1765C21.0876 14.8227 20.7839 14.519 20.4301 14.2826C19.7162 13.8056 18.7578 13.7453 17.01 13.7377C16.7571 13.7366 16.4877 13.7366 16.2 13.7366C13.9248 13.7366 12.7872 13.7366 11.97 14.2826C11.6162 14.519 11.3125 14.8227 11.0761 15.1765C10.53 15.9937 10.53 17.1313 10.53 19.4066V29.1266C10.53 31.4018 10.53 32.5394 11.0761 33.3566C11.3125 33.7104 11.6162 34.0141 11.97 34.2505C12.7872 34.7966 13.9248 34.7966 16.2 34.7966C18.4753 34.7966 19.6129 34.7966 20.4301 34.2505C20.7839 34.0141 21.0876 33.7104 21.324 33.3566C21.6275 32.9024 21.7623 32.3491 21.8222 31.5566" stroke="#E15B3B" stroke-width="2.43" stroke-linecap="round"/>
<path d="M17.0101 18.5965V21.0265C17.0101 23.3018 17.0101 24.4394 17.5561 25.2566C17.7925 25.6104 18.0963 25.9141 18.4501 26.1505C19.1639 26.6275 20.1224 26.6878 21.8701 26.6954C22.123 26.6965 22.3925 26.6965 22.6801 26.6965C24.9553 26.6965 26.0929 26.6965 26.9101 26.1505C27.2639 25.9141 27.5677 25.6104 27.8041 25.2566C28.3501 24.4394 28.3501 23.3018 28.3501 21.0265V11.3065C28.3501 9.03131 28.3501 7.89369 27.8041 7.07649C27.5677 6.72271 27.2639 6.41896 26.9101 6.18257C26.0929 5.63654 24.9553 5.63654 22.6801 5.63654C20.4049 5.63654 19.2673 5.63654 18.4501 6.18257C18.0963 6.41896 17.7925 6.72271 17.5561 7.07649C17.2526 7.53073 17.1178 8.08396 17.0579 8.87654" stroke="#E15B3B" stroke-width="2.43" stroke-linecap="round"/>
</svg>
