<svg width="40" height="40" viewBox="0 0 40 40" fill="none" xmlns="http://www.w3.org/2000/svg">
<circle cx="19.6888" cy="19.8045" r="18.928" fill="white" fill-opacity="0.2" stroke="white" stroke-width="1.456"/>
<path fill-rule="evenodd" clip-rule="evenodd" d="M27.2599 25.92H24.2897V20.7229C24.2897 19.2971 23.6607 18.5017 22.5328 18.5017C21.3053 18.5017 20.5769 19.3306 20.5769 20.7229V25.92H17.6066V16.2668H20.5769V17.3523C20.5769 17.3523 21.5088 15.7171 23.6087 15.7171C25.7094 15.7171 27.2599 16.999 27.2599 19.6514V25.92ZM14.222 14.7229C13.2203 14.7229 12.4087 13.9047 12.4087 12.8955C12.4087 11.8871 13.2203 11.0688 14.222 11.0688C15.223 11.0688 16.0346 11.8871 16.0346 12.8955C16.0354 13.9047 15.223 14.7229 14.222 14.7229ZM12.4087 25.92H16.1215V16.2668H12.4087V25.92Z" fill="white"/>
</svg>
