<svg width="33" height="33" viewBox="0 0 33 33" fill="none" xmlns="http://www.w3.org/2000/svg">
<path d="M18.9 3.58008L18.9 9.65508C18.9 12.2007 18.9 13.4735 19.6908 14.2643C20.4816 15.0551 21.7544 15.0551 24.3 15.0551" stroke="white" stroke-width="2.025" stroke-linecap="round" stroke-linejoin="round"/>
<path d="M29.025 20.4551H20.25M13.5 20.4551H20.25M20.25 20.4551V29.2301" stroke="white" stroke-width="2.025" stroke-linecap="round" stroke-linejoin="round"/>
<path d="M3.375 13.7052H6.75C9.29558 13.7052 10.5684 13.7052 11.3592 12.9144C12.15 12.1236 12.15 10.8508 12.15 8.30518" stroke="white" stroke-width="2.025" stroke-linecap="round" stroke-linejoin="round"/>
<path d="M3.375 20.4551H8.1" stroke="white" stroke-width="2.025" stroke-linecap="round" stroke-linejoin="round"/>
<path d="M3.375 16.4051C3.375 10.3593 3.375 7.33643 5.25318 5.45826C7.13136 3.58008 10.1542 3.58008 16.2 3.58008C22.2458 3.58008 25.2686 3.58008 27.1468 5.45826C29.025 7.33643 29.025 10.3593 29.025 16.4051C29.025 22.4508 29.025 25.4737 27.1468 27.3519C25.2686 29.2301 22.2458 29.2301 16.2 29.2301C10.1542 29.2301 7.13136 29.2301 5.25318 27.3519C3.375 25.4737 3.375 22.4508 3.375 16.4051Z" stroke="white" stroke-width="2.025" stroke-linejoin="round"/>
</svg>
