<svg width="49" height="50" viewBox="0 0 49 50" fill="none" xmlns="http://www.w3.org/2000/svg">
<rect y="0.850098" width="48.3" height="48.3" rx="24.15" fill="#E15B3B"/>
<path d="M28.5993 20.5967C29.7307 21.7179 27.9205 30.8354 26.063 30.9961C24.5047 31.1308 24.0191 28.0575 23.6909 27.0834C23.367 26.122 23.0066 25.7759 22.0531 25.4604C19.6309 24.6591 18.4198 24.2585 18.18 23.6241C17.545 21.9441 27.1543 19.1649 28.5993 20.5967Z" stroke="white" stroke-width="1.8"/>
<path d="M36.1499 25.0001C36.1499 31.6275 30.7773 37.0001 24.1499 37.0001C17.5225 37.0001 12.1499 31.6275 12.1499 25.0001C12.1499 18.3727 17.5225 13.0001 24.1499 13.0001C30.7773 13.0001 36.1499 18.3727 36.1499 25.0001Z" stroke="white" stroke-width="1.8"/>
</svg>
