<svg width="39" height="40" viewBox="0 0 39 40" fill="none" xmlns="http://www.w3.org/2000/svg">
<path d="M8.09998 13.7364C8.11683 9.45244 8.27494 7.16079 9.75867 5.67706C11.4194 4.01636 14.0922 4.01636 19.438 4.01636C24.7837 4.01636 27.4566 4.01636 29.1173 5.67706C30.601 7.16079 30.7591 9.45244 30.776 13.7364M8.09998 26.6964C8.11683 30.9803 8.27494 33.2719 9.75867 34.7557C11.4194 36.4164 14.0922 36.4164 19.438 36.4164C24.7837 36.4164 27.4566 36.4164 29.1173 34.7557C30.601 33.2719 30.7591 30.9803 30.776 26.6964" stroke="#E15B3B" stroke-width="2.43" stroke-linecap="round"/>
<path d="M17.8199 31.5564H21.0599" stroke="#E15B3B" stroke-width="2.43" stroke-linecap="round" stroke-linejoin="round"/>
<path d="M25.92 16.9763L27.907 18.689C28.7424 19.409 29.16 19.769 29.16 20.2163C29.16 20.6637 28.7424 21.0237 27.907 21.7437L25.92 23.4563" stroke="#E15B3B" stroke-width="2.43" stroke-linecap="round" stroke-linejoin="round"/>
<path d="M12.96 16.9763L10.973 18.689C10.1376 19.409 9.71997 19.769 9.71997 20.2163C9.71997 20.6637 10.1376 21.0237 10.973 21.7437L12.96 23.4563" stroke="#E15B3B" stroke-width="2.43" stroke-linecap="round" stroke-linejoin="round"/>
<path d="M21.0599 15.3564L17.8199 25.0764" stroke="#E15B3B" stroke-width="2.43" stroke-linecap="round" stroke-linejoin="round"/>
</svg>
