<svg width="54" height="54" viewBox="0 0 54 54" fill="none" xmlns="http://www.w3.org/2000/svg">
<rect width="53.46" height="53.46" rx="26.73" fill="#E15B3B"/>
<path d="M29.16 14.5801H24.3C20.3157 14.5801 18.3236 14.5801 16.9115 15.5689C16.389 15.9347 15.9346 16.3891 15.5688 16.9115C14.58 18.3237 14.58 20.3158 14.58 24.3001C14.58 28.2843 14.58 30.2765 15.5688 31.6886C15.9346 32.2111 16.389 32.6655 16.9115 33.0313C18.3236 34.0201 20.3157 34.0201 24.3 34.0201H29.16C33.1442 34.0201 35.1364 34.0201 36.5485 33.0313C37.071 32.6655 37.5254 32.2111 37.8912 31.6886C38.88 30.2765 38.88 28.2843 38.88 24.3001C38.88 20.3158 38.88 18.3237 37.8912 16.9115C37.5254 16.3891 37.071 15.9347 36.5485 15.5689C35.1364 14.5801 33.1442 14.5801 29.16 14.5801Z" stroke="white" stroke-width="1.8225" stroke-linecap="round"/>
<path d="M31.59 21.87L33.0802 23.1545C33.7067 23.6945 34.02 23.9645 34.02 24.3C34.02 24.6355 33.7067 24.9055 33.0802 25.4455L31.59 26.73" stroke="white" stroke-width="1.8225" stroke-linecap="round" stroke-linejoin="round"/>
<path d="M21.87 21.87L20.3798 23.1545C19.7533 23.6945 19.44 23.9645 19.44 24.3C19.44 24.6355 19.7533 24.9055 20.3798 25.4455L21.87 26.73" stroke="white" stroke-width="1.8225" stroke-linecap="round" stroke-linejoin="round"/>
<path d="M27.945 20.655L25.515 27.945" stroke="white" stroke-width="1.8225" stroke-linecap="round" stroke-linejoin="round"/>
<path d="M29.9567 38.88L29.4478 38.3711C28.3005 37.2239 28.0161 35.4712 28.7417 34.02" stroke="white" stroke-width="1.8225" stroke-linecap="round"/>
<path d="M23.0856 38.88L23.5945 38.3711C24.7418 37.2239 25.0262 35.4712 24.3006 34.02" stroke="white" stroke-width="1.8225" stroke-linecap="round"/>
<path d="M20.655 38.88H32.805" stroke="white" stroke-width="1.8225" stroke-linecap="round"/>
</svg>
