<svg width="208" height="44" viewBox="0 0 208 44" fill="none" xmlns="http://www.w3.org/2000/svg">
<path d="M67.6392 16.9606C68.7561 17.5496 69.6282 18.4141 70.2555 19.5616C70.8828 20.7091 71.1965 22.1014 71.1965 23.7232V34.2955H67.5168V24.274C67.5168 22.6675 67.1114 21.4358 66.3158 20.579C65.5125 19.7222 64.4186 19.2938 63.0263 19.2938C61.634 19.2938 60.54 19.7222 59.7215 20.579C58.9029 21.4358 58.4975 22.6675 58.4975 24.274V34.2955H54.7872V16.3715H58.4975V18.4217C59.1018 17.6873 59.8821 17.1136 60.8231 16.7005C61.764 16.2874 62.7738 16.0808 63.8295 16.0808C65.2371 16.0808 66.4994 16.3715 67.6239 16.9606H67.6392Z" fill="black"/>
<path d="M79.1067 33.4387C77.7373 32.666 76.6663 31.5874 75.886 30.1874C75.1057 28.7875 74.7156 27.1657 74.7156 25.322C74.7156 23.4784 75.1134 21.8872 75.9166 20.4719C76.7199 19.0643 77.8138 17.978 79.2061 17.2207C80.5908 16.4633 82.1437 16.0808 83.8573 16.0808C85.5709 16.0808 87.1239 16.4633 88.5085 17.2207C89.8932 17.978 90.9948 19.0643 91.798 20.4719C92.6013 21.8795 92.9991 23.5013 92.9991 25.322C92.9991 27.1427 92.586 28.7645 91.7598 30.1721C90.9336 31.5797 89.809 32.6737 88.3938 33.4387C86.9709 34.2113 85.4026 34.5938 83.689 34.5938C81.9754 34.5938 80.4684 34.2113 79.099 33.4387H79.1067ZM86.3818 30.6923C87.2157 30.2333 87.8965 29.5525 88.4167 28.6421C88.9369 27.7318 89.197 26.6225 89.197 25.322C89.197 24.0215 88.9446 22.9199 88.4473 22.0172C87.9501 21.1145 87.2845 20.4413 86.466 19.9823C85.6398 19.5233 84.7524 19.3015 83.7961 19.3015C82.8399 19.3015 81.9601 19.531 81.1416 19.9823C80.323 20.4337 79.6804 21.1145 79.2061 22.0172C78.7318 22.9199 78.487 24.0215 78.487 25.322C78.487 27.2498 78.9766 28.7416 79.9711 29.7973C80.958 30.853 82.1973 31.3732 83.6967 31.3732C84.6529 31.3732 85.548 31.1437 86.3818 30.6923Z" fill="black"/>
<path d="M101.009 19.4009V29.323C101.009 29.9962 101.169 30.4781 101.483 30.7688C101.797 31.0595 102.332 31.2049 103.097 31.2049H105.377V34.2955H102.447C100.779 34.2955 99.4939 33.9053 98.6065 33.125C97.7191 32.3447 97.2754 31.0748 97.2754 29.3153V19.3933H95.164V16.3639H97.2754V11.9039H101.016V16.3639H105.377V19.3933H101.016L101.009 19.4009Z" fill="black"/>
<path d="M113.111 19.4009V29.323C113.111 29.9962 113.272 30.4781 113.585 30.7688C113.899 31.0595 114.434 31.2049 115.199 31.2049H117.479V34.2955H114.549C112.881 34.2955 111.596 33.9053 110.709 33.125C109.821 32.3447 109.378 31.0748 109.378 29.3153V19.3933H107.266V16.3639H109.378V11.9039H113.119V16.3639H117.479V19.3933H113.119L113.111 19.4009Z" fill="black"/>
<path d="M121.082 13.3115C120.623 12.8525 120.401 12.2941 120.401 11.6209C120.401 10.9477 120.631 10.3816 121.082 9.93024C121.541 9.47124 122.1 9.24939 122.773 9.24939C123.446 9.24939 123.974 9.47889 124.433 9.93024C124.892 10.3892 125.114 10.9477 125.114 11.6209C125.114 12.2941 124.884 12.8602 124.433 13.3115C123.974 13.7705 123.423 13.9924 122.773 13.9924C122.123 13.9924 121.534 13.7629 121.082 13.3115ZM124.594 16.3715V34.3031H120.883V16.3715H124.594Z" fill="black"/>
<path d="M145.784 26.722H132.083C132.19 28.1525 132.725 29.3 133.674 30.1721C134.63 31.0366 135.8 31.4726 137.185 31.4726C139.182 31.4726 140.589 30.6388 141.416 28.9634H145.416C144.873 30.6158 143.894 31.9622 142.471 33.0179C141.048 34.0736 139.289 34.5938 137.185 34.5938C135.471 34.5938 133.934 34.2113 132.58 33.4387C131.226 32.666 130.162 31.5874 129.39 30.1874C128.617 28.7875 128.235 27.1657 128.235 25.322C128.235 23.4784 128.609 21.8566 129.359 20.4566C130.109 19.0567 131.157 17.978 132.519 17.2207C133.873 16.4633 135.433 16.0808 137.185 16.0808C138.937 16.0808 140.383 16.448 141.706 17.1901C143.03 17.9245 144.062 18.9649 144.797 20.296C145.531 21.6271 145.906 23.1647 145.906 24.9013C145.906 25.5745 145.86 26.1788 145.776 26.722H145.784ZM142.043 23.7308C142.02 22.3615 141.53 21.2675 140.582 20.4413C139.625 19.6151 138.447 19.202 137.032 19.202C135.755 19.202 134.661 19.6075 133.743 20.426C132.832 21.2369 132.289 22.3385 132.113 23.7308H142.035H142.043Z" fill="black"/>
<path d="M149.364 33.8441C148.905 33.3851 148.683 32.8267 148.683 32.1535C148.683 31.4803 148.913 30.9142 149.364 30.4628C149.823 30.0038 150.382 29.782 151.055 29.782C151.728 29.782 152.256 30.0115 152.715 30.4628C153.174 30.9218 153.396 31.4803 153.396 32.1535C153.396 32.8267 153.166 33.3928 152.715 33.8441C152.256 34.3031 151.705 34.525 151.055 34.525C150.405 34.525 149.816 34.2955 149.364 33.8441Z" fill="black"/>
<path d="M170.233 16.9606C171.35 17.5496 172.222 18.4141 172.849 19.5616C173.477 20.7091 173.79 22.1014 173.79 23.7232V34.2955H170.111V24.274C170.111 22.6675 169.705 21.4358 168.91 20.579C168.106 19.7222 167.012 19.2938 165.62 19.2938C164.228 19.2938 163.134 19.7222 162.315 20.579C161.497 21.4358 161.091 22.6675 161.091 24.274V34.2955H157.381V16.3715H161.091V18.4217C161.696 17.6873 162.476 17.1136 163.417 16.7005C164.358 16.2874 165.368 16.0808 166.423 16.0808C167.831 16.0808 169.093 16.3715 170.218 16.9606H170.233Z" fill="black"/>
<path d="M194.821 26.722H181.119C181.226 28.1525 181.762 29.3 182.711 30.1721C183.659 31.0442 184.837 31.4726 186.222 31.4726C188.219 31.4726 189.626 30.6388 190.452 28.9634H194.453C193.91 30.6158 192.931 31.9622 191.508 33.0179C190.085 34.0736 188.326 34.5938 186.222 34.5938C184.508 34.5938 182.971 34.2113 181.617 33.4387C180.263 32.666 179.199 31.5874 178.427 30.1874C177.654 28.7875 177.271 27.1657 177.271 25.322C177.271 23.4784 177.646 21.8566 178.396 20.4566C179.146 19.0567 180.194 17.978 181.555 17.2207C182.909 16.4633 184.47 16.0808 186.222 16.0808C187.974 16.0808 189.42 16.448 190.743 17.1901C192.067 17.9245 193.099 18.9649 193.834 20.296C194.568 21.6271 194.943 23.1647 194.943 24.9013C194.943 25.5745 194.897 26.1788 194.813 26.722H194.821ZM191.08 23.7308C191.057 22.3615 190.567 21.2675 189.619 20.4413C188.662 19.6151 187.484 19.202 186.069 19.202C184.791 19.202 183.697 19.6075 182.787 20.426C181.877 21.2369 181.334 22.3385 181.158 23.7308H191.087H191.08Z" fill="black"/>
<path d="M202.922 19.4009V29.323C202.922 29.9962 203.075 30.4781 203.396 30.7688C203.71 31.0595 204.245 31.2049 205.01 31.2049H207.29V34.2955H204.36C202.692 34.2955 201.407 33.9053 200.52 33.125C199.632 32.3447 199.189 31.0748 199.189 29.3153V19.3933H197.077V16.3639H199.189V11.9039H202.93V16.3639H207.29V19.3933H202.93L202.922 19.4009Z" fill="black"/>
<path d="M38.4544 26.4159C39.2271 24.3351 39.6478 22.0784 39.6555 19.7298C39.7014 9.03512 31.011 0.237616 20.3239 0.138166C9.46093 0.0387162 0.625183 8.81327 0.625183 19.6533C0.625183 30.4934 9.36148 39.1685 20.1403 39.1685C22.5501 39.1685 24.8604 38.7324 26.9871 37.9292C30.0088 36.797 33.4284 37.6691 35.5245 40.1247C36.4501 41.211 37.2228 42.435 37.8195 43.6973L37.1769 36.1085C36.9015 32.819 37.3069 29.4989 38.4468 26.4006L38.4544 26.4159ZM21.6244 17.9856C21.6703 17.7867 21.678 17.5725 21.6244 17.343C21.4638 16.6392 20.8288 16.1267 20.1097 16.142C19.2835 16.1573 18.6256 16.8305 18.6256 17.6567C18.6256 17.7714 18.6409 17.8785 18.6639 17.9856C16.0476 18.6435 14.1121 21.015 14.1121 23.8379C14.1121 26.3547 12.5745 28.512 10.3866 29.4147V19.6533C10.3866 16.9605 11.4805 14.5125 13.2477 12.7454C15.0148 10.9782 17.4552 9.88427 20.148 9.88427C22.8408 9.88427 25.2811 10.9782 27.0483 12.7454C28.8154 14.5125 29.9094 16.9529 29.9094 19.6533V29.4147C27.7215 28.5044 26.1838 26.3471 26.1838 23.8379C26.1838 21.015 24.2484 18.6435 21.6321 17.9856H21.6244Z" fill="#FEB21E"/>
</svg>
