<svg width="40" height="44" viewBox="0 0 40 44" fill="none" xmlns="http://www.w3.org/2000/svg">
<path d="M38.4544 26.4159C39.2271 24.3351 39.6478 22.0784 39.6555 19.7298C39.7014 9.03512 31.011 0.237616 20.3239 0.138166C9.46093 0.0387162 0.625183 8.81327 0.625183 19.6533C0.625183 30.4934 9.36148 39.1685 20.1403 39.1685C22.5501 39.1685 24.8604 38.7324 26.9871 37.9292C30.0088 36.797 33.4284 37.6691 35.5245 40.1247C36.4501 41.211 37.2228 42.435 37.8195 43.6973L37.1769 36.1085C36.9015 32.819 37.3069 29.4989 38.4468 26.4006L38.4544 26.4159ZM21.6244 17.9856C21.6703 17.7867 21.678 17.5725 21.6244 17.343C21.4638 16.6392 20.8288 16.1267 20.1097 16.142C19.2835 16.1573 18.6256 16.8305 18.6256 17.6567C18.6256 17.7714 18.6409 17.8785 18.6639 17.9856C16.0476 18.6435 14.1121 21.015 14.1121 23.8379C14.1121 26.3547 12.5745 28.512 10.3866 29.4147V19.6533C10.3866 16.9605 11.4805 14.5125 13.2477 12.7454C15.0148 10.9782 17.4552 9.88427 20.148 9.88427C22.8408 9.88427 25.2811 10.9782 27.0483 12.7454C28.8154 14.5125 29.9094 16.9529 29.9094 19.6533V29.4147C27.7215 28.5044 26.1838 26.3471 26.1838 23.8379C26.1838 21.015 24.2484 18.6435 21.6321 17.9856H21.6244Z" fill="#FEB21E"/>
</svg>
