<svg width="211" height="39" viewBox="0 0 211 39" fill="none" xmlns="http://www.w3.org/2000/svg">
<g clip-path="url(#clip0_13_1362)">
<path d="M14.112 0.715332C6.3 0.715332 0 7.01533 0 14.8273V17.5363H7.245L7.812 16.9693L16.254 8.52733L16.821 7.96033V0.715332H14.112ZM16.254 31.0813L7.749 22.6393L7.245 22.1353H0V24.8443C0 32.6563 6.3 38.9563 14.112 38.9563H16.821V31.7113L16.254 31.0813ZM30.933 22.0723L21.357 31.6483V38.8933H24.066C31.878 38.8933 38.178 32.5933 38.178 24.7813V22.0723H30.933ZM24.066 0.715332H21.357V7.96033L21.861 8.46433C21.861 8.46433 21.924 8.46433 21.924 8.52733L30.366 16.9693L30.933 17.5363H38.178V14.8273C38.178 7.01533 31.878 0.715332 24.066 0.715332Z" fill="white"/>
<path d="M59.0308 28.3723C57.4558 28.3723 56.0068 28.0573 54.7468 27.3643C53.4868 26.7343 52.5418 25.7893 51.8488 24.5293C51.1558 23.2693 50.7778 21.8203 50.7778 20.1823V19.6783C50.7778 17.9773 51.1558 16.5283 51.8488 15.3313C52.5418 14.1343 53.5498 13.1893 54.7468 12.4963C56.0068 11.8033 57.3928 11.4883 59.0308 11.4883C60.6058 11.4883 62.0548 11.8033 63.3148 12.4963C64.5748 13.1893 65.5198 14.1343 66.2758 15.3313C66.9688 16.5283 67.3468 17.9773 67.3468 19.6783V20.1823C67.3468 21.8833 66.9688 23.3323 66.2758 24.5293C65.5828 25.7263 64.5748 26.7343 63.3148 27.3643C62.0548 28.0573 60.6058 28.3723 59.0308 28.3723ZM59.0308 25.4113C60.4798 25.4113 61.6768 24.9703 62.6218 24.0253C63.5668 23.0803 64.0078 21.7573 64.0078 20.1193V19.8043C64.0078 18.1663 63.5668 16.8433 62.6218 15.8983C61.7398 14.9533 60.5428 14.5123 59.0308 14.5123C57.5818 14.5123 56.3848 14.9533 55.5028 15.8983C54.5578 16.8433 54.1168 18.1663 54.1168 19.8043V20.1193C54.1168 21.7573 54.5578 23.0803 55.5028 24.0253C56.3848 24.9073 57.5818 25.4113 59.0308 25.4113Z" fill="white"/>
<path d="M71.4419 34.3573V11.9293H74.7179V14.1973H75.2219C75.6629 13.5043 76.2299 12.8743 77.1119 12.3073C77.9309 11.7403 79.1279 11.4883 80.7029 11.4883C82.0259 11.4883 83.2859 11.8033 84.3569 12.4333C85.4909 13.0633 86.3729 14.0083 87.0659 15.2053C87.7589 16.4023 88.0739 17.9143 88.0739 19.6153V20.1193C88.0739 21.8203 87.7589 23.3323 87.0659 24.5293C86.3729 25.7263 85.4909 26.6713 84.3569 27.3013C83.2229 27.9313 82.0259 28.2463 80.6399 28.2463C79.6319 28.2463 78.7499 28.1203 77.9939 27.8683C77.3009 27.6163 76.7339 27.3013 76.2929 26.8603C75.8519 26.4823 75.5369 26.0413 75.2849 25.6003H74.7809V34.2313H71.4419V34.3573ZM79.6949 25.4743C81.1439 25.4743 82.3409 25.0333 83.2859 24.0883C84.2309 23.1433 84.6719 21.8203 84.6719 20.1193V19.8043C84.6719 18.1033 84.2309 16.7803 83.2859 15.8353C82.3409 14.8903 81.1439 14.4493 79.6949 14.4493C78.2459 14.4493 77.1119 14.8903 76.1669 15.8353C75.2219 16.7803 74.7809 18.1033 74.7809 19.8043V20.1193C74.7809 21.8203 75.2219 23.1433 76.1669 24.0883C77.1119 24.9703 78.2459 25.4743 79.6949 25.4743Z" fill="white"/>
<path d="M99.4766 28.3723C97.8386 28.3723 96.4526 28.0573 95.2556 27.3643C94.0586 26.6713 93.1136 25.7263 92.4206 24.4663C91.7276 23.2063 91.4126 21.7573 91.4126 20.1193V19.7413C91.4126 18.1033 91.7276 16.6543 92.4206 15.3943C93.1136 14.1343 93.9956 13.1893 95.1926 12.4963C96.3896 11.8033 97.7756 11.4883 99.3506 11.4883C100.863 11.4883 102.249 11.8033 103.383 12.4963C104.517 13.1893 105.462 14.1343 106.092 15.3313C106.722 16.5283 107.037 17.9773 107.037 19.5523V20.8123H94.7516C94.8146 22.1983 95.2556 23.3323 96.1376 24.1513C97.0196 24.9703 98.1536 25.4113 99.4766 25.4113C100.737 25.4113 101.682 25.1593 102.312 24.5923C102.942 24.0253 103.446 23.3953 103.761 22.6393L106.533 24.0883C106.218 24.7183 105.777 25.3483 105.21 25.9783C104.643 26.6713 103.887 27.2383 102.942 27.6793C102.123 28.1203 100.926 28.3723 99.4766 28.3723ZM94.8146 18.2923H103.635C103.572 17.0953 103.131 16.1503 102.312 15.4573C101.556 14.7643 100.548 14.4493 99.2876 14.4493C98.0276 14.4493 97.0196 14.7643 96.2006 15.4573C95.5076 16.1503 95.0036 17.0953 94.8146 18.2923Z" fill="white"/>
<path d="M111.069 27.9312V11.9292H114.345V14.3232H114.849C115.164 13.6932 115.668 13.0632 116.487 12.4962C117.243 11.9292 118.44 11.6772 119.952 11.6772C121.149 11.6772 122.22 11.9292 123.165 12.4962C124.11 13.0632 124.866 13.8192 125.37 14.7642C125.937 15.7722 126.189 16.9062 126.189 18.2922V27.8682H122.85V18.6072C122.85 17.2212 122.535 16.2132 121.842 15.5202C121.149 14.8902 120.204 14.5122 119.007 14.5122C117.621 14.5122 116.55 14.9532 115.668 15.8982C114.849 16.7802 114.408 18.1032 114.408 19.8672V27.9312H111.069Z" fill="white"/>
<path d="M130.032 27.9315V24.8445H133.056V8.33847H130.032V5.25146H139.104C142.128 5.25146 144.459 6.00747 146.034 7.51946C147.672 9.03147 148.428 11.3625 148.428 14.4495V18.6705C148.428 21.7575 147.609 24.0885 146.034 25.6005C144.459 27.1125 142.128 27.8685 139.104 27.8685H130.032V27.9315ZM136.584 24.7185H139.104C141.057 24.7185 142.506 24.2145 143.451 23.2065C144.396 22.1985 144.9 20.7495 144.9 18.7965V14.3235C144.9 12.3075 144.396 10.8585 143.451 9.91347C142.506 8.96847 141.057 8.46447 139.104 8.46447H136.584V24.7185Z" fill="white"/>
<path d="M159.831 28.3723C158.193 28.3723 156.807 28.0573 155.61 27.3643C154.413 26.6713 153.468 25.7263 152.775 24.4663C152.082 23.2063 151.767 21.7573 151.767 20.1193V19.7413C151.767 18.1033 152.082 16.6543 152.775 15.3943C153.468 14.1343 154.35 13.1893 155.547 12.4963C156.744 11.8033 158.13 11.4883 159.705 11.4883C161.217 11.4883 162.603 11.8033 163.737 12.4963C164.871 13.1893 165.816 14.1343 166.446 15.3313C167.076 16.5283 167.391 17.9773 167.391 19.5523V20.8123H155.106C155.169 22.1983 155.61 23.3323 156.492 24.1513C157.374 24.9703 158.508 25.4113 159.831 25.4113C161.091 25.4113 162.036 25.1593 162.666 24.5923C163.296 24.0253 163.8 23.3953 164.115 22.6393L166.887 24.0883C166.572 24.7183 166.131 25.3483 165.564 25.9783C164.997 26.6713 164.241 27.2383 163.296 27.6793C162.414 28.1203 161.28 28.3723 159.831 28.3723ZM155.169 18.2923H163.989C163.926 17.0953 163.485 16.1503 162.666 15.4573C161.91 14.7643 160.902 14.4493 159.642 14.4493C158.382 14.4493 157.374 14.7643 156.555 15.4573C155.736 16.1503 155.358 17.0953 155.169 18.2923Z" fill="white"/>
<path d="M177.912 28.3723C175.896 28.3723 174.195 27.9313 172.872 26.9863C171.549 26.1043 170.73 24.7183 170.415 22.8913L173.502 22.1353C173.691 23.0173 173.943 23.7103 174.384 24.2143C174.825 24.7183 175.329 25.0963 175.896 25.2853C176.526 25.4743 177.156 25.6003 177.912 25.6003C178.983 25.6003 179.802 25.4113 180.369 24.9703C180.936 24.5293 181.251 24.0253 181.251 23.3953C181.251 22.7653 180.999 22.2613 180.432 21.9463C179.865 21.6313 179.109 21.3793 178.038 21.1903L176.967 21.0013C175.896 20.8123 174.888 20.4973 174.006 20.1823C173.124 19.8043 172.431 19.3003 171.927 18.6703C171.423 18.0403 171.171 17.2213 171.171 16.1503C171.171 14.6383 171.738 13.4413 172.872 12.6223C174.006 11.8033 175.455 11.3623 177.345 11.3623C179.109 11.3623 180.621 11.7403 181.755 12.5593C182.889 13.3783 183.645 14.4493 184.023 15.8353L180.936 16.7173C180.747 15.7723 180.306 15.0793 179.676 14.6383C179.046 14.2603 178.29 14.0083 177.345 14.0083C176.463 14.0083 175.707 14.1973 175.203 14.5123C174.699 14.8273 174.447 15.3313 174.447 15.8983C174.447 16.5283 174.699 17.0323 175.203 17.3473C175.707 17.6623 176.4 17.8513 177.282 18.0403L178.416 18.2293C179.55 18.4183 180.621 18.6703 181.566 19.0483C182.511 19.3633 183.267 19.8673 183.834 20.5603C184.401 21.2533 184.653 22.0723 184.653 23.1433C184.653 24.7183 184.086 25.9783 182.889 26.8603C181.566 27.9313 179.928 28.3723 177.912 28.3723Z" fill="white"/>
<path d="M188.37 27.9315V5.25146H191.709V18.1665H192.213L198.513 11.9295H202.923L194.859 19.6785L203.175 27.8685H198.765L192.213 21.2535H191.709V27.8685H188.37V27.9315Z" fill="white"/>
<path d="M209.664 23.8992C209.979 24.0882 210.231 24.2772 210.357 24.5922C210.546 24.9072 210.609 25.2222 210.609 25.6002C210.609 25.9782 210.546 26.2932 210.357 26.6082C210.168 26.9232 209.916 27.1752 209.664 27.3012C209.412 27.4272 209.034 27.5532 208.656 27.5532C208.278 27.5532 207.963 27.4902 207.648 27.3012C207.333 27.1122 207.081 26.8602 206.955 26.6082C206.766 26.2932 206.703 25.9782 206.703 25.6002C206.703 25.2222 206.766 24.9072 206.955 24.5922C207.144 24.2772 207.396 24.0252 207.648 23.8992C207.9 23.7732 208.278 23.6472 208.656 23.6472C209.034 23.5842 209.349 23.7102 209.664 23.8992ZM209.475 27.0492C209.727 26.9232 209.916 26.6712 210.042 26.4192C210.168 26.1672 210.231 25.8522 210.231 25.6002C210.231 25.2852 210.168 25.0332 210.042 24.7812C209.916 24.5292 209.727 24.3402 209.475 24.2142C209.223 24.0882 208.971 24.0252 208.656 24.0252C208.341 24.0252 208.026 24.0882 207.774 24.2772C207.522 24.4662 207.333 24.6552 207.207 24.9072C207.081 25.1592 207.018 25.4742 207.018 25.7262C207.018 25.9782 207.081 26.2932 207.207 26.5452C207.333 26.7972 207.522 26.9862 207.774 27.1752C208.026 27.3012 208.278 27.4272 208.593 27.4272C208.971 27.2382 209.223 27.1752 209.475 27.0492ZM209.538 25.6632C209.475 25.7892 209.349 25.8522 209.223 25.9152L209.727 26.6712H209.223L208.782 25.9782H208.719H208.278V26.6712H207.774V24.4662H208.719C209.034 24.4662 209.223 24.5292 209.412 24.6552C209.601 24.7812 209.664 24.9702 209.664 25.2222C209.664 25.4112 209.601 25.5372 209.538 25.6632ZM208.719 25.6632C208.845 25.6632 208.971 25.6002 209.097 25.5372C209.16 25.4742 209.223 25.3482 209.223 25.2222C209.223 25.0962 209.16 25.0332 209.097 24.9072C209.034 24.8442 208.908 24.7812 208.719 24.7812H208.278V25.5372H208.719V25.6632Z" fill="white"/>
</g>
<defs>
<clipPath id="clip0_13_1362">
<rect width="210.609" height="38.178" fill="white" transform="translate(0 0.715332)"/>
</clipPath>
</defs>
</svg>
