<svg width="54" height="54" viewBox="0 0 54 54" fill="none" xmlns="http://www.w3.org/2000/svg">
<rect width="53.46" height="53.46" rx="26.73" fill="#E15B3B"/>
<path d="M29.9097 17.9414C31.1374 15.9966 31.7512 15.0242 32.5555 14.7313C33.1091 14.5297 33.7159 14.5297 34.2695 14.7313C35.0738 15.0242 35.6876 15.9966 36.9153 17.9414C38.2971 20.1305 38.988 21.225 38.8663 22.1281C38.7828 22.7476 38.4711 23.3135 37.9922 23.7149C37.294 24.3001 36.0002 24.3001 33.4125 24.3001C30.8248 24.3001 29.531 24.3001 28.8328 23.7149C28.3539 23.3135 28.0422 22.7476 27.9587 22.1281C27.837 21.225 28.5279 20.1305 29.9097 17.9414Z" stroke="white" stroke-width="1.8225" stroke-linejoin="round"/>
<path d="M14.58 19.4401C14.58 17.4152 14.58 16.4028 15.0957 15.6931C15.2622 15.4638 15.4638 15.2623 15.693 15.0957C16.4027 14.5801 17.4152 14.5801 19.44 14.5801C21.4649 14.5801 22.4773 14.5801 23.187 15.0957C23.4163 15.2623 23.6178 15.4638 23.7844 15.6931C24.3 16.4028 24.3 17.4152 24.3 19.4401C24.3 21.4649 24.3 22.4774 23.7844 23.1871C23.6178 23.4163 23.4163 23.6179 23.187 23.7844C22.4773 24.3001 21.4649 24.3001 19.44 24.3001C17.4152 24.3001 16.4027 24.3001 15.693 23.7844C15.4638 23.6179 15.2622 23.4163 15.0957 23.1871C14.58 22.4774 14.58 21.4649 14.58 19.4401Z" stroke="white" stroke-width="1.8225" stroke-linejoin="round"/>
<circle cx="33.4126" cy="34.02" r="4.86" stroke="white" stroke-width="1.8225" stroke-linejoin="round"/>
<path d="M23.6924 29.7676L15.1875 38.2726M15.1876 29.7676L23.6925 38.2726" stroke="white" stroke-width="1.8225" stroke-linecap="round" stroke-linejoin="round"/>
</svg>
