<svg width="58" height="55" viewBox="0 0 58 55" fill="none" xmlns="http://www.w3.org/2000/svg">
<rect width="57.7657" height="54.877" rx="27.4385" fill="#E15B3B"/>
<path fill-rule="evenodd" clip-rule="evenodd" d="M30.7117 30.7572C31.2702 30.9705 31.5501 31.5963 31.3367 32.1548C30.4146 34.5691 29.0116 35.9002 27.3082 36.5658C25.7316 37.1819 23.9851 37.1816 22.4805 37.1814C22.4491 37.1814 22.4178 37.1814 22.3866 37.1814C20.7697 37.1814 19.4138 37.1948 18.253 37.6484C17.186 38.0653 16.1909 38.8994 15.4591 40.8153C15.2458 41.3738 14.6201 41.6537 14.0616 41.4404C13.503 41.227 13.2232 40.6013 13.4365 40.0428C14.3586 37.6285 15.7617 36.2974 17.465 35.6318C19.0417 35.0156 20.7882 35.0159 22.2928 35.0162C22.3242 35.0162 22.3555 35.0162 22.3866 35.0162C24.0036 35.0162 25.3595 35.0028 26.5202 34.5492C27.5872 34.1322 28.5823 33.2982 29.3141 31.3823C29.5275 30.8237 30.1532 30.5439 30.7117 30.7572Z" fill="white"/>
<path fill-rule="evenodd" clip-rule="evenodd" d="M30.2498 13.365H36.1785C37.8137 13.365 39.1499 13.3649 40.2048 13.5068C41.3075 13.655 42.2636 13.9759 43.0267 14.739C43.7898 15.5021 44.1107 16.4581 44.2589 17.5608C44.4007 18.6158 44.4007 19.952 44.4007 21.5872V24.629C44.4007 26.2641 44.4007 27.6004 44.2589 28.6553C44.1107 29.758 43.7898 30.714 43.0267 31.4772C42.2636 32.2403 41.3075 32.5611 40.2048 32.7094C39.1499 32.8512 37.8137 32.8512 36.1785 32.8512H33.934C33.3361 32.8512 32.8514 32.3665 32.8514 31.7686C32.8514 31.1707 33.3361 30.686 33.934 30.686H36.101C37.8327 30.686 39.0226 30.6837 39.9163 30.5636C40.7789 30.4476 41.2019 30.24 41.4957 29.9462C41.7895 29.6524 41.9971 29.2294 42.1131 28.3668C42.2333 27.4731 42.2356 26.2832 42.2356 24.5515V21.6647C42.2356 19.933 42.2333 18.7431 42.1131 17.8493C41.9971 16.9867 41.7895 16.5638 41.4957 16.27C41.2019 15.9762 40.7789 15.7686 39.9163 15.6526C39.0226 15.5324 37.8327 15.5301 36.101 15.5301H30.3273C28.5956 15.5301 27.4058 15.5324 26.512 15.6526C25.6494 15.7686 25.2264 15.9762 24.9326 16.27C24.6811 16.5215 24.4962 16.8641 24.375 17.483C24.2478 18.1322 24.207 18.995 24.1965 20.2304C24.1915 20.8283 23.7027 21.3088 23.1048 21.3038C22.507 21.2987 22.0264 20.8099 22.0315 20.2121C22.0419 18.9842 22.0799 17.9364 22.2502 17.0668C22.4265 16.1671 22.7577 15.383 23.4017 14.739C24.1648 13.9759 25.1208 13.655 26.2235 13.5068C27.2785 13.3649 28.6147 13.365 30.2498 13.365Z" fill="white"/>
<path fill-rule="evenodd" clip-rule="evenodd" d="M22.3866 25.634C20.9916 25.634 19.8607 26.7649 19.8607 28.16C19.8607 29.555 20.9916 30.686 22.3866 30.686C23.7817 30.686 24.9126 29.555 24.9126 28.16C24.9126 26.7649 23.7817 25.634 22.3866 25.634ZM17.6955 28.16C17.6955 25.5692 19.7958 23.4689 22.3866 23.4689C24.9775 23.4689 27.0778 25.5692 27.0778 28.16C27.0778 30.7508 24.9775 32.8511 22.3866 32.8511C19.7958 32.8511 17.6955 30.7508 17.6955 28.16Z" fill="white"/>
<path fill-rule="evenodd" clip-rule="evenodd" d="M27.7995 20.2212C27.7995 19.6234 28.2841 19.1387 28.882 19.1387H37.5426C38.1404 19.1387 38.6251 19.6234 38.6251 20.2212C38.6251 20.8191 38.1404 21.3038 37.5426 21.3038H28.882C28.2841 21.3038 27.7995 20.8191 27.7995 20.2212ZM32.1297 25.9949C32.1297 25.397 32.6144 24.9124 33.2123 24.9124H37.5426C38.1404 24.9124 38.6251 25.397 38.6251 25.9949C38.6251 26.5928 38.1404 27.0775 37.5426 27.0775H33.2123C32.6144 27.0775 32.1297 26.5928 32.1297 25.9949Z" fill="white"/>
</svg>
