<svg width="47" height="48" viewBox="0 0 47 48" fill="none" xmlns="http://www.w3.org/2000/svg">
<rect y="0.850098" width="46.3" height="46.3" rx="23.15" fill="#E15B3B"/>
<path d="M30.8501 35.0001L25.3501 25.1001L19.8501 35.0001" stroke="white" stroke-width="1.65" stroke-linecap="round" stroke-linejoin="round"/>
<path d="M27.4618 15.2001L17.6802 20.9816C16.5997 21.6202 16.2295 23.0345 16.8533 24.1406L17.9828 26.1434C18.6066 27.2495 19.9882 27.6285 21.0686 26.9899L30.8503 21.2084" stroke="white" stroke-width="1.65" stroke-linejoin="round"/>
<path d="M27.7917 15.7014C27.2947 14.8402 27.5897 13.7389 28.4505 13.2417C29.3114 12.7444 30.4121 13.0395 30.9091 13.9008L33.9089 19.0988C34.4059 19.9601 34.1109 21.0613 33.2501 21.5586C32.3892 22.0558 31.2885 21.7607 30.7915 20.8995L27.7917 15.7014Z" stroke="white" stroke-width="1.65" stroke-linecap="round" stroke-linejoin="round"/>
<path d="M12.1499 26.491L12.9619 27.9955M12.9619 27.9955L13.7739 29.5M12.9619 27.9955L17.0999 25.65" stroke="white" stroke-width="1.65" stroke-linecap="round" stroke-linejoin="round"/>
</svg>
