<svg width="39" height="40" viewBox="0 0 39 40" fill="none" xmlns="http://www.w3.org/2000/svg">
<path d="M32.4 16.6838C32.4 10.4766 32.4 7.373 30.502 5.44468C28.6041 3.51636 25.5494 3.51636 19.44 3.51636H16.2C10.0906 3.51636 7.03589 3.51636 5.13794 5.44468C3.23999 7.373 3.23999 10.4766 3.23999 16.6838C3.23999 22.8909 3.23999 25.9945 5.13794 27.9228C5.8987 28.6958 6.8453 29.1589 8.09999 29.4364" stroke="#E15B3B" stroke-width="2.43" stroke-linecap="round"/>
<path d="M35.64 28.6264C35.64 25.5891 35.64 24.0705 34.8665 23.0059C34.6167 22.6621 34.3143 22.3597 33.9705 22.1099C32.9059 21.3364 31.3872 21.3364 28.35 21.3364H20.25C17.2127 21.3364 15.694 21.3364 14.6294 22.1099C14.2856 22.3597 13.9832 22.6621 13.7334 23.0059C12.96 24.0705 12.96 25.5891 12.96 28.6264C12.96 31.6637 12.96 33.1824 13.7334 34.247C13.9832 34.5908 14.2856 34.8931 14.6294 35.1429C15.694 35.9164 17.2127 35.9164 20.25 35.9164H28.35C31.3872 35.9164 32.9059 35.9164 33.9705 35.1429C34.3143 34.8931 34.6167 34.5908 34.8665 34.247C35.64 33.1824 35.64 31.6637 35.64 28.6264Z" stroke="#E15B3B" stroke-width="2.43"/>
<path d="M26.7299 26.1963L28.2202 27.4808C28.8467 28.0208 29.1599 28.2908 29.1599 28.6263C29.1599 28.9618 28.8467 29.2318 28.2202 29.7718L26.7299 31.0563" stroke="#E15B3B" stroke-width="2.43" stroke-linecap="round" stroke-linejoin="round"/>
<path d="M21.8699 26.1963L20.3797 27.4808C19.7532 28.0208 19.4399 28.2908 19.4399 28.6263C19.4399 28.9618 19.7532 29.2318 20.3797 29.7718L21.8699 31.0563" stroke="#E15B3B" stroke-width="2.43" stroke-linecap="round" stroke-linejoin="round"/>
<path d="M4.05005 9.99634H31.59" stroke="#E15B3B" stroke-width="2.43" stroke-linecap="round" stroke-linejoin="round"/>
</svg>
