<svg width="56" height="56" viewBox="0 0 56 56" fill="none" xmlns="http://www.w3.org/2000/svg">
<rect width="55.7928" height="55.7928" rx="27.8964" fill="#E15B3B"/>
<path d="M38.394 25.44C38.394 20.4122 38.394 17.8983 36.8567 16.3364C35.3193 14.7744 32.845 14.7744 27.8964 14.7744H25.272C20.3234 14.7744 17.8491 14.7744 16.3118 16.3364C14.7744 17.8983 14.7744 20.4122 14.7744 25.44C14.7744 30.4678 14.7744 32.9817 16.3118 34.5437C16.928 35.1697 17.6947 35.5448 18.711 35.7696" stroke="white" stroke-width="1.9683" stroke-linecap="round"/>
<path d="M41.0184 35.1135C41.0184 32.6533 41.0184 31.4232 40.3919 30.5609C40.1896 30.2824 39.9447 30.0375 39.6662 29.8351C38.8038 29.2086 37.5737 29.2086 35.1135 29.2086H28.5525C26.0923 29.2086 24.8622 29.2086 23.9999 29.8351C23.7214 30.0375 23.4765 30.2824 23.2742 30.5609C22.6476 31.4232 22.6476 32.6533 22.6476 35.1135C22.6476 37.5737 22.6476 38.8038 23.2742 39.6661C23.4765 39.9446 23.7214 40.1896 23.9999 40.3919C24.8622 41.0184 26.0923 41.0184 28.5525 41.0184H35.1135C37.5737 41.0184 38.8038 41.0184 39.6662 40.3919C39.9447 40.1896 40.1896 39.9446 40.3919 39.6661C41.0184 38.8038 41.0184 37.5737 41.0184 35.1135Z" stroke="white" stroke-width="1.9683"/>
<path d="M33.8013 33.1453L35.0084 34.1857C35.5159 34.6231 35.7696 34.8418 35.7696 35.1136C35.7696 35.3853 35.5159 35.604 35.0084 36.0414L33.8013 37.0819" stroke="white" stroke-width="1.9683" stroke-linecap="round" stroke-linejoin="round"/>
<path d="M29.8647 33.1453L28.6576 34.1857C28.1502 34.6231 27.8964 34.8418 27.8964 35.1136C27.8964 35.3853 28.1502 35.604 28.6576 36.0414L29.8647 37.0819" stroke="white" stroke-width="1.9683" stroke-linecap="round" stroke-linejoin="round"/>
<path d="M15.4305 20.0232H37.7379" stroke="white" stroke-width="1.9683" stroke-linecap="round" stroke-linejoin="round"/>
</svg>
