<svg width="201" height="42" viewBox="0 0 201 42" fill="none" xmlns="http://www.w3.org/2000/svg">
<path d="M34.4039 3.03387L11.5066 25.9118L0 14.4052H9.57595L11.5066 16.3359L24.828 3.03387H34.4039Z" fill="#55FAA8"/>
<path d="M39.2128 33.0736L45.2364 39.0779H5.00195L39.5796 4.51971L39.6375 4.55833V12.9758L19.5589 33.0736H39.2128Z" fill="#55FAA8"/>
<path d="M63.9271 28.0508H75.397V32.6126H57.2363V28.9197L68.5759 15.0602H57.5839V10.4984H75.2666V14.1913L63.9271 28.0508Z" fill="white"/>
<path d="M100.396 2.20008H106.261L94.7045 32.6126H88.622L77.0652 2.20008H82.9305L91.6633 26.226L100.396 2.20008Z" fill="white"/>
<path d="M128.012 23.1413H111.545C112.11 26.6605 114.413 28.6156 118.062 28.6156C120.582 28.6156 122.624 27.7032 124.232 25.835L127.403 28.9631C125.318 31.7003 121.929 33.2209 117.889 33.2209C110.85 33.2209 106.158 28.5721 106.158 21.6641C106.158 14.7996 110.72 9.89011 117.367 9.89011C123.754 9.89011 128.142 14.3651 128.142 21.0993C128.142 21.751 128.099 22.4462 128.012 23.1413ZM111.545 19.5352H122.842C122.624 16.2767 120.582 14.4954 117.411 14.4954C114.152 14.4954 112.11 16.3636 111.545 19.5352Z" fill="white"/>
<path d="M146.902 10.4115V15.3644C145.99 15.234 145.164 15.1471 144.469 15.1471C140.515 15.1471 138.56 17.1891 138.56 21.7076V32.6126H133.26V10.4984H138.473V14.1913C139.56 11.628 141.993 10.1073 144.99 10.1073C145.686 10.1073 146.337 10.1942 146.902 10.4115Z" fill="white"/>
<path d="M150.597 3.50347C150.597 1.59183 151.944 0.201538 153.986 0.201538C155.941 0.201538 157.331 1.59183 157.331 3.50347C157.331 5.41512 155.941 6.80541 153.986 6.80541C151.944 6.80541 150.597 5.41512 150.597 3.50347ZM151.335 32.6126V10.4984H156.636V32.6126H151.335Z" fill="white"/>
<path d="M165.212 32.6126V15.1471H160.954V10.4984H165.212V7.63089C165.212 2.89522 167.645 0.41877 172.902 0.41877C174.162 0.41877 175.378 0.549111 176.508 0.809789V5.28478C175.509 5.111 174.64 5.0241 173.901 5.0241C171.512 5.0241 170.512 5.93648 170.512 8.06536V10.4984H176.464V15.1471H170.512V32.6126H165.212Z" fill="white"/>
<path d="M194.904 10.4984H200.161V30.3969C200.161 37.8262 196.033 41.9102 188.734 41.9102C184.954 41.9102 181.479 40.7806 179.393 38.8255L181.783 34.9587C183.651 36.3925 186.041 37.1745 188.43 37.1745C192.558 37.1745 194.947 34.785 194.947 30.3969V28.4852C193.687 30.9182 190.994 32.3954 187.735 32.3954C182.999 32.3954 180.088 29.3976 180.088 24.0537V10.4984H185.389V22.7068C185.389 26.0522 186.736 27.5728 189.56 27.5728C192.818 27.5728 194.904 25.5743 194.904 22.4027V10.4984Z" fill="white"/>
</svg>
