<svg width="150" height="43" viewBox="0 0 150 43" fill="none" xmlns="http://www.w3.org/2000/svg">
<path fill-rule="evenodd" clip-rule="evenodd" d="M19.36 40.7744C30.0522 40.7744 38.72 32.1067 38.72 21.4144C38.72 10.7222 30.0522 2.05444 19.36 2.05444C8.66775 2.05444 0 10.7222 0 21.4144C0 32.1067 8.66775 40.7744 19.36 40.7744ZM25.3996 11.0732C25.6936 10.0289 24.6802 9.41137 23.7547 10.0707L10.8349 19.2748C9.83121 19.9898 9.9891 21.4144 11.0721 21.4144H14.4742V21.3881H21.1048L15.7021 23.2944L13.3204 31.7558C13.0264 32.8001 14.0397 33.4175 14.9653 32.7581L27.8851 23.5542C28.8888 22.8391 28.7308 21.4144 27.6479 21.4144H22.4887L25.3996 11.0732Z" fill="#838080"/>
<path d="M48.7344 30.1345V27.0721H51.1632V14.7169H48.7344V11.6545H58.2384C59.3648 11.6545 60.3416 11.8481 61.1688 12.2353C62.0136 12.6049 62.6648 13.1417 63.1224 13.8457C63.5976 14.5321 63.8352 15.3593 63.8352 16.3273V16.5913C63.8352 17.4361 63.6768 18.1313 63.36 18.6769C63.0432 19.2049 62.6648 19.6185 62.2248 19.9177C61.8024 20.1993 61.3976 20.4017 61.0104 20.5249V21.0001C61.3976 21.1057 61.82 21.3081 62.2776 21.6073C62.7352 21.8889 63.1224 22.3025 63.4392 22.8481C63.7736 23.3937 63.9408 24.1065 63.9408 24.9865V25.2505C63.9408 26.2713 63.7032 27.1513 63.228 27.8905C62.7528 28.6121 62.0928 29.1665 61.248 29.5537C60.4208 29.9409 59.4528 30.1345 58.344 30.1345H48.7344ZM54.648 26.9665H57.9216C58.6784 26.9665 59.2856 26.7817 59.7432 26.4121C60.2184 26.0425 60.456 25.5145 60.456 24.8281V24.5641C60.456 23.8777 60.2272 23.3497 59.7696 22.9801C59.312 22.6105 58.696 22.4257 57.9216 22.4257H54.648V26.9665ZM54.648 19.2577H57.8688C58.5904 19.2577 59.18 19.0729 59.6376 18.7033C60.1128 18.3337 60.3504 17.8233 60.3504 17.1721V16.9081C60.3504 16.2393 60.1216 15.7289 59.664 15.3769C59.2064 15.0073 58.608 14.8225 57.8688 14.8225H54.648V19.2577Z" fill="#838080"/>
<path d="M71.8096 30.5041C70.5072 30.5041 69.3368 30.2401 68.2984 29.7121C67.26 29.1841 66.4416 28.4185 65.8432 27.4153C65.2448 26.4121 64.9456 25.2065 64.9456 23.7985V23.3761C64.9456 21.9681 65.2448 20.7625 65.8432 19.7593C66.4416 18.7561 67.26 17.9905 68.2984 17.4625C69.3368 16.9345 70.5072 16.6705 71.8096 16.6705C73.112 16.6705 74.2824 16.9345 75.3208 17.4625C76.3592 17.9905 77.1776 18.7561 77.776 19.7593C78.3744 20.7625 78.6736 21.9681 78.6736 23.3761V23.7985C78.6736 25.2065 78.3744 26.4121 77.776 27.4153C77.1776 28.4185 76.3592 29.1841 75.3208 29.7121C74.2824 30.2401 73.112 30.5041 71.8096 30.5041ZM71.8096 27.5473C72.8304 27.5473 73.6752 27.2217 74.344 26.5705C75.0128 25.9017 75.3472 24.9513 75.3472 23.7193V23.4553C75.3472 22.2233 75.0128 21.2817 74.344 20.6305C73.6928 19.9617 72.848 19.6273 71.8096 19.6273C70.7888 19.6273 69.944 19.9617 69.2752 20.6305C68.6064 21.2817 68.272 22.2233 68.272 23.4553V23.7193C68.272 24.9513 68.6064 25.9017 69.2752 26.5705C69.944 27.2217 70.7888 27.5473 71.8096 27.5473Z" fill="#838080"/>
<path d="M80.4241 30.1345V11.6545H83.7505V30.1345H80.4241Z" fill="#838080"/>
<path d="M91.1326 30.1345C90.2702 30.1345 89.5662 29.8705 89.0206 29.3425C88.4926 28.7969 88.2286 28.0753 88.2286 27.1777V19.7857H84.955V17.0401H88.2286V12.9745H91.555V17.0401H95.1454V19.7857H91.555V26.5969C91.555 27.1249 91.8014 27.3889 92.2942 27.3889H94.8286V30.1345H91.1326Z" fill="#838080"/>
<path d="M102.275 30.5041C100.568 30.5041 99.1684 30.1345 98.0772 29.3953C96.986 28.6561 96.326 27.6001 96.0972 26.2273L99.1596 25.4353C99.2828 26.0513 99.4852 26.5353 99.7668 26.8873C100.066 27.2393 100.427 27.4945 100.849 27.6529C101.289 27.7937 101.764 27.8641 102.275 27.8641C103.049 27.8641 103.621 27.7321 103.991 27.4681C104.36 27.1865 104.545 26.8433 104.545 26.4385C104.545 26.0337 104.369 25.7257 104.017 25.5145C103.665 25.2857 103.102 25.1009 102.328 24.9601L101.588 24.8281C100.673 24.6521 99.8372 24.4145 99.0804 24.1153C98.3236 23.7985 97.7164 23.3673 97.2588 22.8217C96.8012 22.2761 96.5724 21.5721 96.5724 20.7097C96.5724 19.4073 97.0476 18.4129 97.998 17.7265C98.9484 17.0225 100.198 16.6705 101.747 16.6705C103.208 16.6705 104.422 16.9961 105.39 17.6473C106.358 18.2985 106.992 19.1521 107.291 20.2081L104.202 21.1585C104.061 20.4897 103.771 20.0145 103.331 19.7329C102.908 19.4513 102.38 19.3105 101.747 19.3105C101.113 19.3105 100.629 19.4249 100.295 19.6537C99.9604 19.8649 99.7932 20.1641 99.7932 20.5513C99.7932 20.9737 99.9692 21.2905 100.321 21.5017C100.673 21.6953 101.148 21.8449 101.747 21.9505L102.486 22.0825C103.472 22.2585 104.36 22.4961 105.152 22.7953C105.962 23.0769 106.596 23.4905 107.053 24.0361C107.528 24.5641 107.766 25.2857 107.766 26.2009C107.766 27.5737 107.264 28.6385 106.261 29.3953C105.276 30.1345 103.947 30.5041 102.275 30.5041Z" fill="#838080"/>
<path d="M109.361 30.1345V11.6545H112.687V18.6505H113.163C113.303 18.3689 113.523 18.0873 113.823 17.8057C114.122 17.5241 114.518 17.2953 115.011 17.1193C115.521 16.9257 116.163 16.8289 116.938 16.8289C117.959 16.8289 118.847 17.0665 119.604 17.5417C120.379 17.9993 120.977 18.6417 121.399 19.4689C121.822 20.2785 122.033 21.2289 122.033 22.3201V30.1345H118.707V22.5841C118.707 21.5985 118.46 20.8593 117.967 20.3665C117.492 19.8737 116.806 19.6273 115.908 19.6273C114.887 19.6273 114.095 19.9705 113.532 20.6569C112.969 21.3257 112.687 22.2673 112.687 23.4817V30.1345H109.361Z" fill="#838080"/>
<path d="M124.309 30.1345V17.0401H127.635V30.1345H124.309ZM125.972 15.5089C125.374 15.5089 124.863 15.3153 124.441 14.9281C124.036 14.5409 123.834 14.0305 123.834 13.3969C123.834 12.7633 124.036 12.2529 124.441 11.8657C124.863 11.4785 125.374 11.2849 125.972 11.2849C126.588 11.2849 127.099 11.4785 127.503 11.8657C127.908 12.2529 128.111 12.7633 128.111 13.3969C128.111 14.0305 127.908 14.5409 127.503 14.9281C127.099 15.3153 126.588 15.5089 125.972 15.5089Z" fill="#838080"/>
<path d="M132.166 30.1345V19.7857H128.84V17.0401H132.166V14.6113C132.166 13.7137 132.43 13.0009 132.958 12.4729C133.504 11.9273 134.208 11.6545 135.07 11.6545H138.502V14.4001H136.232C135.739 14.4001 135.493 14.6641 135.493 15.1921V17.0401H138.925V19.7857H135.493V30.1345H132.166Z" fill="#838080"/>
<path d="M144.938 30.1345C144.076 30.1345 143.372 29.8705 142.826 29.3425C142.298 28.7969 142.034 28.0753 142.034 27.1777V19.7857H138.76V17.0401H142.034V12.9745H145.36V17.0401H148.951V19.7857H145.36V26.5969C145.36 27.1249 145.607 27.3889 146.1 27.3889H148.634V30.1345H144.938Z" fill="#838080"/>
</svg>
