<svg width="175" height="43" viewBox="0 0 175 43" fill="none" xmlns="http://www.w3.org/2000/svg">
<path opacity="0.8" d="M32.5098 10.118C32.1294 9.73764 31.7491 9.35728 31.3687 8.97693C30.2277 7.7598 29.0105 6.54267 27.4891 5.78196C25.7395 4.86911 23.8377 5.09732 21.936 5.09732C19.0453 5.09732 11.8186 5.09732 7.55859 5.09732L10.4493 8.97693C15.6982 8.97693 23.9138 8.97693 27.7173 8.97693C29.3148 8.97693 30.6841 9.28121 31.9773 10.118C32.2055 10.1941 32.4337 10.1941 32.5098 10.118Z" fill="#838080"/>
<path opacity="0.9" d="M35.7048 16.3559C35.3244 15.9755 34.9441 15.5952 34.5637 15.2148C33.4227 13.9977 32.2055 12.7806 30.6841 12.0199C28.9345 11.107 27.0327 11.3352 25.131 11.3352C22.6206 11.3352 16.611 11.3352 12.3511 11.3352L15.2418 15.2148C20.4146 15.2148 27.4892 15.2148 30.9884 15.2148C32.5859 15.2148 33.9552 15.5191 35.2484 16.3559C35.4005 16.432 35.5526 16.432 35.7048 16.3559Z" fill="#838080"/>
<path d="M39.2799 22.4414C38.8996 22.061 38.5192 21.6806 38.1389 21.3003C36.9978 20.0832 35.7807 18.866 34.2593 18.1053C32.5096 17.1925 30.6079 17.4207 28.7061 17.4207C26.3479 17.4207 21.1751 17.4207 16.9912 17.4207L19.8819 21.3003C24.9026 21.3003 31.2925 21.3003 34.4875 21.3003C36.085 21.3003 37.4542 21.6046 38.7474 22.4414C38.9756 22.5174 39.1278 22.5935 39.2799 22.4414Z" fill="#838080"/>
<path opacity="0.8" d="M7.25439 32.7109C7.63475 33.0912 8.0151 33.4716 8.39546 33.8519C9.53652 35.0691 10.7536 36.2862 12.2751 37.0469C14.0247 37.9597 15.9265 37.7315 17.8282 37.7315H32.2056L29.3149 33.8519C24.066 33.8519 15.8504 33.8519 12.0469 33.8519C10.4494 33.8519 9.08009 33.5476 7.78689 32.7109C7.55868 32.6348 7.40654 32.6348 7.25439 32.7109Z" fill="#838080"/>
<path opacity="0.9" d="M4.05933 26.4733C4.43968 26.8537 4.82003 27.234 5.20039 27.6144C6.34145 28.8315 7.55857 30.0486 9.07999 30.8094C10.8296 31.7222 12.7314 31.494 14.6332 31.494H27.413L24.5224 27.6144C19.3495 27.6144 12.275 27.6144 8.77571 27.6144C7.17822 27.6144 5.80895 27.3101 4.51574 26.4733C4.3636 26.3972 4.21147 26.3972 4.05933 26.4733Z" fill="#838080"/>
<path d="M0.560059 20.3113C0.940412 20.6917 1.32077 21.072 1.70112 21.4524C2.84218 22.6695 4.05932 23.8867 5.58073 24.6474C7.33036 25.5602 9.23212 25.332 11.1339 25.332H22.8488L19.9581 21.4524C14.9374 21.4524 8.54749 21.4524 5.35252 21.4524C3.75503 21.4524 2.38575 21.1481 1.09255 20.3113C0.864339 20.2353 0.7122 20.2353 0.560059 20.3113Z" fill="#838080"/>
<path d="M48.02 12.6215V30.2144H51.8885V22.9456H59.2559V19.9395H51.8885V15.8739H60.3893V12.6215H48.02Z" fill="#838080"/>
<path d="M70.0919 22.4775H64.4C64.4165 22.2311 64.4657 21.9518 64.5479 21.6397C64.6464 21.3276 64.8025 21.0319 65.016 20.7527C65.246 20.4734 65.5417 20.2434 65.9031 20.0627C66.2809 19.8656 66.7491 19.7671 67.3076 19.7671C68.1617 19.7671 68.7942 19.997 69.2048 20.457C69.6319 20.9169 69.9276 21.5904 70.0919 22.4775ZM64.4 24.6951H73.5908C73.6565 23.7095 73.5743 22.7649 73.3444 21.8615C73.1144 20.958 72.7366 20.1531 72.2109 19.4467C71.7017 18.7404 71.0446 18.1819 70.2397 17.7712C69.4348 17.3441 68.4903 17.1306 67.4061 17.1306C66.4369 17.1306 65.5499 17.3031 64.745 17.648C63.9565 17.993 63.2748 18.4694 62.6999 19.0771C62.1249 19.6685 61.6814 20.3748 61.3693 21.1962C61.0572 22.0175 60.9012 22.9046 60.9012 23.8573C60.9012 24.8429 61.049 25.7464 61.3447 26.5677C61.6568 27.389 62.0921 28.0954 62.6506 28.6867C63.2091 29.2781 63.8908 29.7381 64.6957 30.0666C65.5006 30.3787 66.4041 30.5347 67.4061 30.5347C68.8517 30.5347 70.0837 30.2062 71.1021 29.5491C72.1206 28.8921 72.8762 27.7997 73.369 26.272H70.289C70.174 26.6663 69.8619 27.0441 69.3527 27.4055C68.8435 27.7504 68.2357 27.9229 67.5293 27.9229C66.5437 27.9229 65.7881 27.6683 65.2624 27.1591C64.7368 26.6498 64.4493 25.8285 64.4 24.6951Z" fill="#838080"/>
<path d="M74.7789 21.3933C74.8281 20.572 75.0335 19.8903 75.3949 19.3482C75.7563 18.8061 76.2162 18.3708 76.7747 18.0423C77.3332 17.7137 77.9574 17.4838 78.6474 17.3523C79.3537 17.2045 80.06 17.1306 80.7664 17.1306C81.407 17.1306 82.0559 17.1799 82.713 17.2784C83.37 17.3606 83.9696 17.533 84.5117 17.7959C85.0537 18.0587 85.4973 18.4283 85.8422 18.9047C86.1872 19.3646 86.3597 19.9806 86.3597 20.7527V27.3808C86.3597 27.9558 86.3925 28.5061 86.4582 29.0317C86.5239 29.5574 86.6389 29.9516 86.8032 30.2144H83.255C83.1893 30.0173 83.1318 29.8202 83.0826 29.6231C83.0497 29.4095 83.0251 29.196 83.0086 28.9824C82.4501 29.5574 81.7931 29.9598 81.0374 30.1898C80.2818 30.4198 79.5098 30.5347 78.7213 30.5347C78.1135 30.5347 77.5468 30.4608 77.0211 30.313C76.4955 30.1651 76.0355 29.9352 75.6413 29.6231C75.247 29.311 74.9349 28.9167 74.7049 28.4403C74.4914 27.964 74.3846 27.3973 74.3846 26.7402C74.3846 26.0174 74.5078 25.426 74.7542 24.9661C75.0171 24.4897 75.3456 24.1119 75.7398 23.8327C76.1505 23.5534 76.6104 23.3481 77.1197 23.2167C77.6453 23.0688 78.171 22.9538 78.6966 22.8717C79.2223 22.7896 79.7397 22.7239 80.249 22.6746C80.7582 22.6253 81.2099 22.5514 81.6042 22.4528C81.9984 22.3543 82.3105 22.2146 82.5405 22.0339C82.7704 21.8368 82.8772 21.5576 82.8608 21.1962C82.8608 20.8184 82.7951 20.5227 82.6637 20.3091C82.5487 20.0792 82.3844 19.9067 82.1709 19.7917C81.9738 19.6603 81.7356 19.5782 81.4563 19.5453C81.1935 19.496 80.906 19.4714 80.5939 19.4714C79.904 19.4714 79.3619 19.6192 78.9677 19.9149C78.5734 20.2106 78.3435 20.7034 78.2778 21.3933H74.7789ZM82.8608 23.9805C82.7129 24.1119 82.524 24.2187 82.2941 24.3008C82.0805 24.3665 81.8423 24.424 81.5795 24.4733C81.3331 24.5226 81.0703 24.5636 80.791 24.5965C80.5118 24.6294 80.2325 24.6704 79.9533 24.7197C79.6904 24.769 79.4276 24.8347 79.1648 24.9168C78.9184 24.999 78.6966 25.1139 78.4995 25.2618C78.3188 25.3932 78.171 25.5657 78.056 25.7792C77.941 25.9928 77.8835 26.2638 77.8835 26.5923C77.8835 26.9045 77.941 27.1673 78.056 27.3808C78.171 27.5944 78.327 27.7668 78.5241 27.8983C78.7213 28.0132 78.9512 28.0954 79.2141 28.1447C79.4769 28.1939 79.7479 28.2186 80.0272 28.2186C80.7171 28.2186 81.251 28.1036 81.6288 27.8736C82.0066 27.6436 82.2859 27.3726 82.4666 27.0605C82.6472 26.732 82.754 26.4034 82.7869 26.0749C82.8362 25.7464 82.8608 25.4835 82.8608 25.2864V23.9805Z" fill="#838080"/>
<path d="M92.7715 17.4755V13.6563H89.2726V17.4755H87.1535V19.8163H89.2726V27.3315C89.2726 27.9722 89.3794 28.4896 89.5929 28.8839C89.8064 29.2781 90.0939 29.582 90.4553 29.7955C90.8331 30.0091 91.2602 30.1487 91.7366 30.2144C92.2294 30.2966 92.7468 30.3376 93.2889 30.3376C93.6339 30.3376 93.987 30.3294 94.3484 30.313C94.7098 30.2966 95.0383 30.2637 95.334 30.2144V27.504C95.1698 27.5369 94.9973 27.5615 94.8166 27.5779C94.6359 27.5944 94.447 27.6026 94.2499 27.6026C93.6585 27.6026 93.2643 27.504 93.0671 27.3069C92.87 27.1098 92.7715 26.7155 92.7715 26.1242V19.8163H95.334V17.4755H92.7715Z" fill="#838080"/>
<path d="M96.2596 12.6215V30.2144H99.7584V23.537C99.7584 22.2393 99.972 21.3112 100.399 20.7527C100.826 20.1777 101.516 19.8903 102.469 19.8903C103.307 19.8903 103.89 20.1531 104.218 20.6787C104.547 21.188 104.711 21.9682 104.711 23.0195V30.2144H108.21V22.3789C108.21 21.5904 108.136 20.8759 107.988 20.2352C107.857 19.5782 107.619 19.0279 107.274 18.5843C106.929 18.1244 106.452 17.7712 105.845 17.5248C105.253 17.262 104.489 17.1306 103.553 17.1306C102.896 17.1306 102.222 17.3031 101.533 17.648C100.843 17.9766 100.276 18.5104 99.8324 19.2496H99.7584V12.6215H96.2596Z" fill="#838080"/>
<path d="M118.701 22.4775H113.009C113.026 22.2311 113.075 21.9518 113.157 21.6397C113.256 21.3276 113.412 21.0319 113.625 20.7527C113.855 20.4734 114.151 20.2434 114.512 20.0627C114.89 19.8656 115.358 19.7671 115.917 19.7671C116.771 19.7671 117.403 19.997 117.814 20.457C118.241 20.9169 118.537 21.5904 118.701 22.4775ZM113.009 24.6951H122.2C122.266 23.7095 122.183 22.7649 121.954 21.8615C121.724 20.958 121.346 20.1531 120.82 19.4467C120.311 18.7404 119.654 18.1819 118.849 17.7712C118.044 17.3441 117.099 17.1306 116.015 17.1306C115.046 17.1306 114.159 17.3031 113.354 17.648C112.566 17.993 111.884 18.4694 111.309 19.0771C110.734 19.6685 110.291 20.3748 109.978 21.1962C109.666 22.0175 109.51 22.9046 109.51 23.8573C109.51 24.8429 109.658 25.7464 109.954 26.5677C110.266 27.389 110.701 28.0954 111.26 28.6867C111.818 29.2781 112.5 29.7381 113.305 30.0666C114.11 30.3787 115.013 30.5347 116.015 30.5347C117.461 30.5347 118.693 30.2062 119.711 29.5491C120.73 28.8921 121.485 27.7997 121.978 26.272H118.898C118.783 26.6663 118.471 27.0441 117.962 27.4055C117.453 27.7504 116.845 27.9229 116.138 27.9229C115.153 27.9229 114.397 27.6683 113.872 27.1591C113.346 26.6498 113.058 25.8285 113.009 24.6951Z" fill="#838080"/>
<path d="M123.536 17.4755V30.2144H127.035V24.4733C127.035 23.8984 127.092 23.3645 127.207 22.8717C127.322 22.3789 127.511 21.9518 127.774 21.5904C128.053 21.2126 128.415 20.9169 128.858 20.7034C129.302 20.4898 129.844 20.3831 130.484 20.3831C130.698 20.3831 130.92 20.3995 131.15 20.4323C131.38 20.4488 131.577 20.4734 131.741 20.5063V17.2538C131.462 17.1716 131.207 17.1306 130.977 17.1306C130.534 17.1306 130.107 17.1963 129.696 17.3277C129.285 17.4591 128.899 17.648 128.538 17.8944C128.176 18.1244 127.856 18.4119 127.577 18.7568C127.298 19.0854 127.076 19.4467 126.912 19.841H126.862V17.4755H123.536Z" fill="#838080"/>
<path d="M136.612 26.9619V15.8739H139.371C140.324 15.8739 141.121 16.0136 141.761 16.2928C142.418 16.5556 142.944 16.9417 143.338 17.4509C143.733 17.9601 144.012 18.5761 144.176 19.2989C144.357 20.0052 144.447 20.8019 144.447 21.689C144.447 22.6582 144.324 23.4795 144.078 24.153C143.831 24.8265 143.503 25.3768 143.092 25.8039C142.681 26.2145 142.213 26.5102 141.687 26.6909C141.162 26.8716 140.62 26.9619 140.061 26.9619H136.612ZM132.743 12.6215V30.2144H140.332C141.679 30.2144 142.846 29.9927 143.831 29.5491C144.833 29.0892 145.663 28.465 146.32 27.6765C146.993 26.888 147.494 25.9517 147.823 24.8675C148.151 23.7834 148.316 22.6007 148.316 21.3194C148.316 19.8574 148.11 18.5843 147.7 17.5002C147.305 16.416 146.747 15.5126 146.024 14.7898C145.318 14.067 144.472 13.5249 143.486 13.1635C142.517 12.8022 141.466 12.6215 140.332 12.6215H132.743Z" fill="#838080"/>
<path d="M158.472 22.4775H152.781C152.797 22.2311 152.846 21.9518 152.928 21.6397C153.027 21.3276 153.183 21.0319 153.397 20.7527C153.627 20.4734 153.922 20.2434 154.284 20.0627C154.661 19.8656 155.13 19.7671 155.688 19.7671C156.542 19.7671 157.175 19.997 157.585 20.457C158.013 20.9169 158.308 21.5904 158.472 22.4775ZM152.781 24.6951H161.971C162.037 23.7095 161.955 22.7649 161.725 21.8615C161.495 20.958 161.117 20.1531 160.592 19.4467C160.082 18.7404 159.425 18.1819 158.62 17.7712C157.815 17.3441 156.871 17.1306 155.787 17.1306C154.818 17.1306 153.931 17.3031 153.126 17.648C152.337 17.993 151.655 18.4694 151.08 19.0771C150.506 19.6685 150.062 20.3748 149.75 21.1962C149.438 22.0175 149.282 22.9046 149.282 23.8573C149.282 24.8429 149.43 25.7464 149.725 26.5677C150.037 27.389 150.473 28.0954 151.031 28.6867C151.59 29.2781 152.271 29.7381 153.076 30.0666C153.881 30.3787 154.785 30.5347 155.787 30.5347C157.232 30.5347 158.464 30.2062 159.483 29.5491C160.501 28.8921 161.257 27.7997 161.75 26.272H158.67C158.555 26.6663 158.243 27.0441 157.733 27.4055C157.224 27.7504 156.616 27.9229 155.91 27.9229C154.924 27.9229 154.169 27.6683 153.643 27.1591C153.117 26.6498 152.83 25.8285 152.781 24.6951Z" fill="#838080"/>
<path d="M170.354 30.2144L174.666 17.4755H171.192L168.506 26.1735H168.457L165.771 17.4755H162.1L166.461 30.2144H170.354Z" fill="#838080"/>
</svg>
