<svg width="175" height="43" viewBox="0 0 175 43" fill="none" xmlns="http://www.w3.org/2000/svg">
<path d="M27.5775 2.05444H12.7426L0.800049 13.997V28.8319L12.7426 40.7744H27.5775L39.5201 28.8319V13.997L27.5775 2.05444ZM14.7952 29.0185L7.14455 21.3678L14.7952 13.7171C17.6876 10.8248 22.4459 10.8248 25.3383 13.7171L32.989 21.3678L25.3383 29.0185C22.4459 31.9108 17.7809 31.9108 14.7952 29.0185Z" fill="#838080"/>
<path d="M56.5394 30.4257C58.9154 30.4257 60.869 29.2113 61.4762 27.3897V30.2145H64.9874V23.0865C64.9874 21.4761 63.7202 20.1033 62.0042 20.1033H56.9882V23.0865H60.5522C61.001 23.0865 61.2914 23.3769 61.2914 23.8257C61.2914 25.5417 59.021 27.2049 56.7242 27.2049C53.6618 27.2049 51.233 24.8025 51.233 20.9745C51.233 17.1465 53.6618 14.9289 56.8034 14.9289C59.1794 14.9289 60.8162 16.2225 61.1066 18.2025H65.0402C64.8026 14.2425 61.4762 11.5233 56.8298 11.5233C51.9458 11.5233 47.4578 14.6649 47.4578 20.9745C47.4578 27.2841 51.8138 30.4257 56.5394 30.4257Z" fill="#838080"/>
<path d="M66.4946 30.2145H70.1642V11.1273H66.4946V30.2145Z" fill="#838080"/>
<path d="M78.0799 30.4257C82.1719 30.4257 85.1023 27.5217 85.1023 23.5617C85.1023 19.6017 82.1719 16.6977 78.0799 16.6977C73.9879 16.6977 71.0575 19.6017 71.0575 23.5617C71.0575 27.5217 73.9879 30.4257 78.0799 30.4257ZM78.0799 27.2577C76.0999 27.2577 74.7535 25.7529 74.7535 23.5617C74.7535 21.3441 76.0999 19.8393 78.0799 19.8393C80.0599 19.8393 81.4063 21.3441 81.4063 23.5617C81.4063 25.7529 80.0599 27.2577 78.0799 27.2577Z" fill="#838080"/>
<path d="M93.3135 30.4257C97.2471 30.4257 99.5967 27.7065 99.5967 23.5617C99.5967 19.4169 97.2471 16.6977 93.3663 16.6977C91.7031 16.6977 90.4095 17.3313 89.6703 18.3081V11.1273H86.0007V30.2145H89.6703V28.7625C90.4095 29.7921 91.7823 30.4257 93.3135 30.4257ZM92.7327 27.2577C90.7527 27.2577 89.4591 25.7793 89.4591 23.5617C89.4591 21.3177 90.7527 19.8393 92.7327 19.8393C94.6599 19.8393 95.9799 21.3177 95.9799 23.5617C95.9799 25.7793 94.6599 27.2577 92.7327 27.2577Z" fill="#838080"/>
<path d="M105.739 16.6977C102.096 16.6977 99.9315 18.8361 99.7731 21.5025H103.047C103.099 20.3937 103.918 19.3905 105.528 19.3905C107.033 19.3905 107.904 20.1561 107.904 21.2649C107.904 21.8193 107.561 22.2417 106.901 22.2417H104.657C101.753 22.2417 99.7995 23.8257 99.7995 26.4393C99.7995 28.7097 101.568 30.4257 104.155 30.4257C105.977 30.4257 107.455 29.6073 107.904 28.3665V30.2145H111.547V21.6609C111.547 18.6513 109.092 16.6977 105.739 16.6977ZM105.079 27.7593C104.05 27.7593 103.311 27.1521 103.311 26.2809C103.311 25.2513 104.103 24.5649 105.211 24.5649H107.904V24.7497C107.904 26.4393 106.875 27.7593 105.079 27.7593Z" fill="#838080"/>
<path d="M112.958 30.2145H116.627V11.1273H112.958V30.2145Z" fill="#838080"/>
<path d="M118.576 30.2145H126.127C130.034 30.2145 132.727 28.2081 132.727 24.6969C132.727 22.2681 131.301 20.7897 129.612 20.1297C130.694 19.5489 131.776 18.2289 131.776 16.4865C131.776 13.3977 129.268 11.7345 125.916 11.7345H118.576V30.2145ZM122.484 18.7833V14.8761H125.546C127.315 14.8761 128.107 15.5889 128.107 16.8297C128.107 18.0705 127.315 18.7833 125.625 18.7833H122.484ZM122.484 26.7825V22.1361H125.784C127.975 22.1361 128.952 22.9809 128.952 24.4857C128.952 25.9905 127.975 26.7825 125.784 26.7825H122.484Z" fill="#838080"/>
<path d="M139.111 16.6977C135.468 16.6977 133.303 18.8361 133.144 21.5025H136.418C136.471 20.3937 137.289 19.3905 138.9 19.3905C140.404 19.3905 141.276 20.1561 141.276 21.2649C141.276 21.8193 140.932 22.2417 140.272 22.2417H138.028C135.124 22.2417 133.171 23.8257 133.171 26.4393C133.171 28.7097 134.94 30.4257 137.527 30.4257C139.348 30.4257 140.827 29.6073 141.276 28.3665V30.2145H144.919V21.6609C144.919 18.6513 142.464 16.6977 139.111 16.6977ZM138.451 27.7593C137.421 27.7593 136.682 27.1521 136.682 26.2809C136.682 25.2513 137.474 24.5649 138.583 24.5649H141.276V24.7497C141.276 26.4393 140.246 27.7593 138.451 27.7593Z" fill="#838080"/>
<path d="M146.118 30.2145H149.814V22.9281C149.814 21.2121 150.949 19.9713 152.559 19.9713C154.09 19.9713 155.12 21.1329 155.12 22.7433V30.2145H158.816V21.9249C158.816 18.8625 156.862 16.6977 153.853 16.6977C152.031 16.6977 150.553 17.4633 149.814 18.7569V16.9089H146.118V30.2145Z" fill="#838080"/>
<path d="M169.35 30.2145H173.785L168.056 22.1361L173.363 16.9089H168.716L164.096 21.4497V11.1273H160.4V30.2145H164.096V26.0433L165.575 24.5913L169.35 30.2145Z" fill="#838080"/>
</svg>
