<svg width="211" height="39" viewBox="0 0 211 39" fill="none" xmlns="http://www.w3.org/2000/svg">
<g clip-path="url(#clip0_2_5)">
<path d="M14.112 0.764618C6.3 0.764618 0 7.06462 0 14.8766V17.5856H7.245L7.812 17.0186L16.254 8.57662L16.821 8.00962V0.764618H14.112ZM16.254 31.1306L7.749 22.6886L7.245 22.1846H0V24.8936C0 32.7056 6.3 39.0056 14.112 39.0056H16.821V31.7606L16.254 31.1306ZM30.933 22.1216L21.357 31.6976V38.9426H24.066C31.878 38.9426 38.178 32.6426 38.178 24.8306V22.1216H30.933ZM24.066 0.764618H21.357V8.00962L21.861 8.51362C21.861 8.51362 21.924 8.51362 21.924 8.57662L30.366 17.0186L30.933 17.5856H38.178V14.8766C38.178 7.06462 31.878 0.764618 24.066 0.764618Z" fill="#E15B3B"/>
<path d="M59.0311 28.4216C57.4561 28.4216 56.0071 28.1066 54.7471 27.4136C53.4871 26.7836 52.5421 25.8386 51.8491 24.5786C51.1561 23.3186 50.7781 21.8696 50.7781 20.2316V19.7276C50.7781 18.0266 51.1561 16.5776 51.8491 15.3806C52.5421 14.1836 53.5501 13.2386 54.7471 12.5456C56.0071 11.8526 57.3931 11.5376 59.0311 11.5376C60.6061 11.5376 62.0551 11.8526 63.3151 12.5456C64.5751 13.2386 65.5201 14.1836 66.2761 15.3806C66.9691 16.5776 67.3471 18.0266 67.3471 19.7276V20.2316C67.3471 21.9326 66.9691 23.3816 66.2761 24.5786C65.5831 25.7756 64.5751 26.7836 63.3151 27.4136C62.0551 28.1066 60.6061 28.4216 59.0311 28.4216ZM59.0311 25.4606C60.4801 25.4606 61.6771 25.0196 62.6221 24.0746C63.5671 23.1296 64.0081 21.8066 64.0081 20.1686V19.8536C64.0081 18.2156 63.5671 16.8926 62.6221 15.9476C61.7401 15.0026 60.5431 14.5616 59.0311 14.5616C57.5821 14.5616 56.3851 15.0026 55.5031 15.9476C54.5581 16.8926 54.1171 18.2156 54.1171 19.8536V20.1686C54.1171 21.8066 54.5581 23.1296 55.5031 24.0746C56.3851 24.9566 57.5821 25.4606 59.0311 25.4606Z" fill="#142A49"/>
<path d="M71.442 34.4066V11.9786H74.718V14.2466H75.222C75.663 13.5536 76.23 12.9236 77.112 12.3566C77.931 11.7896 79.128 11.5376 80.703 11.5376C82.026 11.5376 83.286 11.8526 84.357 12.4826C85.491 13.1126 86.373 14.0576 87.066 15.2546C87.759 16.4516 88.074 17.9636 88.074 19.6646V20.1686C88.074 21.8696 87.759 23.3816 87.066 24.5786C86.373 25.7756 85.491 26.7206 84.357 27.3506C83.223 27.9806 82.026 28.2956 80.64 28.2956C79.632 28.2956 78.75 28.1696 77.994 27.9176C77.301 27.6656 76.734 27.3506 76.293 26.9096C75.852 26.5316 75.537 26.0906 75.285 25.6496H74.781V34.2806H71.442V34.4066ZM79.695 25.5236C81.144 25.5236 82.341 25.0826 83.286 24.1376C84.231 23.1926 84.672 21.8696 84.672 20.1686V19.8536C84.672 18.1526 84.231 16.8296 83.286 15.8846C82.341 14.9396 81.144 14.4986 79.695 14.4986C78.246 14.4986 77.112 14.9396 76.167 15.8846C75.222 16.8296 74.781 18.1526 74.781 19.8536V20.1686C74.781 21.8696 75.222 23.1926 76.167 24.1376C77.112 25.0196 78.246 25.5236 79.695 25.5236Z" fill="#142A49"/>
<path d="M99.4771 28.4216C97.8391 28.4216 96.4531 28.1066 95.2561 27.4136C94.0591 26.7206 93.1141 25.7756 92.4211 24.5156C91.7281 23.2556 91.4131 21.8066 91.4131 20.1686V19.7906C91.4131 18.1526 91.7281 16.7036 92.4211 15.4436C93.1141 14.1836 93.9961 13.2386 95.1931 12.5456C96.3901 11.8526 97.7761 11.5376 99.3511 11.5376C100.863 11.5376 102.249 11.8526 103.383 12.5456C104.517 13.2386 105.462 14.1836 106.092 15.3806C106.722 16.5776 107.037 18.0266 107.037 19.6016V20.8616H94.7521C94.8151 22.2476 95.2561 23.3816 96.1381 24.2006C97.0201 25.0196 98.1541 25.4606 99.4771 25.4606C100.737 25.4606 101.682 25.2086 102.312 24.6416C102.942 24.0746 103.446 23.4446 103.761 22.6886L106.533 24.1376C106.218 24.7676 105.777 25.3976 105.21 26.0276C104.643 26.7206 103.887 27.2876 102.942 27.7286C102.123 28.1696 100.926 28.4216 99.4771 28.4216ZM94.8151 18.3416H103.635C103.572 17.1446 103.131 16.1996 102.312 15.5066C101.556 14.8136 100.548 14.4986 99.2881 14.4986C98.0281 14.4986 97.0201 14.8136 96.2011 15.5066C95.5081 16.1996 95.0041 17.1446 94.8151 18.3416Z" fill="#142A49"/>
<path d="M111.069 27.9806V11.9786H114.345V14.3726H114.849C115.164 13.7426 115.668 13.1126 116.487 12.5456C117.243 11.9786 118.44 11.7266 119.952 11.7266C121.149 11.7266 122.22 11.9786 123.165 12.5456C124.11 13.1126 124.866 13.8686 125.37 14.8136C125.937 15.8216 126.189 16.9556 126.189 18.3416V27.9176H122.85V18.6566C122.85 17.2706 122.535 16.2626 121.842 15.5696C121.149 14.9396 120.204 14.5616 119.007 14.5616C117.621 14.5616 116.55 15.0026 115.668 15.9476C114.849 16.8296 114.408 18.1526 114.408 19.9166V27.9806H111.069Z" fill="#142A49"/>
<path d="M130.032 27.9806V24.8936H133.056V8.38763H130.032V5.30063H139.104C142.128 5.30063 144.459 6.05663 146.034 7.56863C147.672 9.08063 148.428 11.4116 148.428 14.4986V18.7196C148.428 21.8066 147.609 24.1376 146.034 25.6496C144.459 27.1616 142.128 27.9176 139.104 27.9176H130.032V27.9806ZM136.584 24.7676H139.104C141.057 24.7676 142.506 24.2636 143.451 23.2556C144.396 22.2476 144.9 20.7986 144.9 18.8456V14.3726C144.9 12.3566 144.396 10.9076 143.451 9.96263C142.506 9.01763 141.057 8.51363 139.104 8.51363H136.584V24.7676Z" fill="#142A49"/>
<path d="M159.831 28.4216C158.193 28.4216 156.807 28.1066 155.61 27.4136C154.413 26.7206 153.468 25.7756 152.775 24.5156C152.082 23.2556 151.767 21.8066 151.767 20.1686V19.7906C151.767 18.1526 152.082 16.7036 152.775 15.4436C153.468 14.1836 154.35 13.2386 155.547 12.5456C156.744 11.8526 158.13 11.5376 159.705 11.5376C161.217 11.5376 162.603 11.8526 163.737 12.5456C164.871 13.2386 165.816 14.1836 166.446 15.3806C167.076 16.5776 167.391 18.0266 167.391 19.6016V20.8616H155.106C155.169 22.2476 155.61 23.3816 156.492 24.2006C157.374 25.0196 158.508 25.4606 159.831 25.4606C161.091 25.4606 162.036 25.2086 162.666 24.6416C163.296 24.0746 163.8 23.4446 164.115 22.6886L166.887 24.1376C166.572 24.7676 166.131 25.3976 165.564 26.0276C164.997 26.7206 164.241 27.2876 163.296 27.7286C162.414 28.1696 161.28 28.4216 159.831 28.4216ZM155.169 18.3416H163.989C163.926 17.1446 163.485 16.1996 162.666 15.5066C161.91 14.8136 160.902 14.4986 159.642 14.4986C158.382 14.4986 157.374 14.8136 156.555 15.5066C155.736 16.1996 155.358 17.1446 155.169 18.3416Z" fill="#142A49"/>
<path d="M177.912 28.4216C175.896 28.4216 174.195 27.9806 172.872 27.0356C171.549 26.1536 170.73 24.7676 170.415 22.9406L173.502 22.1846C173.691 23.0666 173.943 23.7596 174.384 24.2636C174.825 24.7676 175.329 25.1456 175.896 25.3346C176.526 25.5236 177.156 25.6496 177.912 25.6496C178.983 25.6496 179.802 25.4606 180.369 25.0196C180.936 24.5786 181.251 24.0746 181.251 23.4446C181.251 22.8146 180.999 22.3106 180.432 21.9956C179.865 21.6806 179.109 21.4286 178.038 21.2396L176.967 21.0506C175.896 20.8616 174.888 20.5466 174.006 20.2316C173.124 19.8536 172.431 19.3496 171.927 18.7196C171.423 18.0896 171.171 17.2706 171.171 16.1996C171.171 14.6876 171.738 13.4906 172.872 12.6716C174.006 11.8526 175.455 11.4116 177.345 11.4116C179.109 11.4116 180.621 11.7896 181.755 12.6086C182.889 13.4276 183.645 14.4986 184.023 15.8846L180.936 16.7666C180.747 15.8216 180.306 15.1286 179.676 14.6876C179.046 14.3096 178.29 14.0576 177.345 14.0576C176.463 14.0576 175.707 14.2466 175.203 14.5616C174.699 14.8766 174.447 15.3806 174.447 15.9476C174.447 16.5776 174.699 17.0816 175.203 17.3966C175.707 17.7116 176.4 17.9006 177.282 18.0896L178.416 18.2786C179.55 18.4676 180.621 18.7196 181.566 19.0976C182.511 19.4126 183.267 19.9166 183.834 20.6096C184.401 21.3026 184.653 22.1216 184.653 23.1926C184.653 24.7676 184.086 26.0276 182.889 26.9096C181.566 27.9806 179.928 28.4216 177.912 28.4216Z" fill="#142A49"/>
<path d="M188.37 27.9806V5.30063H191.709V18.2156H192.213L198.513 11.9786H202.923L194.859 19.7276L203.175 27.9176H198.765L192.213 21.3026H191.709V27.9176H188.37V27.9806Z" fill="#142A49"/>
<path d="M209.664 23.9486C209.979 24.1376 210.231 24.3266 210.357 24.6416C210.546 24.9566 210.609 25.2716 210.609 25.6496C210.609 26.0276 210.546 26.3426 210.357 26.6576C210.168 26.9726 209.916 27.2246 209.664 27.3506C209.412 27.4766 209.034 27.6026 208.656 27.6026C208.278 27.6026 207.963 27.5396 207.648 27.3506C207.333 27.1616 207.081 26.9096 206.955 26.6576C206.766 26.3426 206.703 26.0276 206.703 25.6496C206.703 25.2716 206.766 24.9566 206.955 24.6416C207.144 24.3266 207.396 24.0746 207.648 23.9486C207.9 23.8226 208.278 23.6966 208.656 23.6966C209.034 23.6336 209.349 23.7596 209.664 23.9486ZM209.475 27.0986C209.727 26.9726 209.916 26.7206 210.042 26.4686C210.168 26.2166 210.231 25.9016 210.231 25.6496C210.231 25.3346 210.168 25.0826 210.042 24.8306C209.916 24.5786 209.727 24.3896 209.475 24.2636C209.223 24.1376 208.971 24.0746 208.656 24.0746C208.341 24.0746 208.026 24.1376 207.774 24.3266C207.522 24.5156 207.333 24.7046 207.207 24.9566C207.081 25.2086 207.018 25.5236 207.018 25.7756C207.018 26.0276 207.081 26.3426 207.207 26.5946C207.333 26.8466 207.522 27.0356 207.774 27.2246C208.026 27.3506 208.278 27.4766 208.593 27.4766C208.971 27.2876 209.223 27.2246 209.475 27.0986ZM209.538 25.7126C209.475 25.8386 209.349 25.9016 209.223 25.9646L209.727 26.7206H209.223L208.782 26.0276H208.719H208.278V26.7206H207.774V24.5156H208.719C209.034 24.5156 209.223 24.5786 209.412 24.7046C209.601 24.8306 209.664 25.0196 209.664 25.2716C209.664 25.4606 209.601 25.5866 209.538 25.7126ZM208.719 25.7126C208.845 25.7126 208.971 25.6496 209.097 25.5866C209.16 25.5236 209.223 25.3976 209.223 25.2716C209.223 25.1456 209.16 25.0826 209.097 24.9566C209.034 24.8936 208.908 24.8306 208.719 24.8306H208.278V25.5866H208.719V25.7126Z" fill="#142A49"/>
</g>
<defs>
<clipPath id="clip0_2_5">
<rect width="210.609" height="38.178" fill="white" transform="translate(0 0.764618)"/>
</clipPath>
</defs>
</svg>
